<svg width="20" height="20" viewBox="0 0 20 20" fill="none" xmlns="http://www.w3.org/2000/svg">
<path d="M1.35297 6.95004C1.67211 5.58763 2.36548 4.34145 3.35493 3.352C4.34438 2.36255 5.59056 1.66918 6.95297 1.35004C8.95907 0.879414 11.0469 0.879414 13.053 1.35004C14.4154 1.66918 15.6616 2.36255 16.651 3.352C17.6405 4.34145 18.3338 5.58763 18.653 6.95004C19.1236 8.95614 19.1236 11.0439 18.653 13.05C18.3338 14.4125 17.6405 15.6586 16.651 16.6481C15.6616 17.6375 14.4154 18.3309 13.053 18.65C11.0469 19.1207 8.95907 19.1207 6.95297 18.65C5.59056 18.3309 4.34438 17.6375 3.35493 16.6481C2.36548 15.6586 1.67211 14.4125 1.35297 13.05C0.882344 11.0439 0.882344 8.95614 1.35297 6.95004Z" fill="#FF0000" fill-opacity="0.15" stroke="#FF0000" stroke-width="1.5"/>
<path d="M7.09793 11.9566L12.9012 8.04228L7.09793 11.9566ZM12.9012 8.04228L9.43062 7.36767L12.9012 8.04228ZM12.9012 8.04228L12.6724 9.2195L12.2266 11.5129" fill="#FF0000" fill-opacity="0.15"/>
<path d="M7.09793 11.9566L12.9012 8.04228M12.9012 8.04228L9.43062 7.36767M12.9012 8.04228L12.6724 9.2195L12.2266 11.5129" stroke="#FF0000" stroke-width="1.5" stroke-linecap="round" stroke-linejoin="round"/>
</svg>
