<svg width="20" height="20" viewBox="0 0 20 20" fill="none" xmlns="http://www.w3.org/2000/svg">
<path d="M1.83289 6.7591C2.12325 5.4546 2.77198 4.25706 3.70604 3.30126C4.6401 2.34547 5.82241 1.66938 7.11989 1.3491C9.01296 0.894377 10.9868 0.894377 12.8799 1.3491C14.1774 1.66938 15.3597 2.34547 16.2937 3.30126C17.2278 4.25706 17.8765 5.4546 18.1669 6.7591C18.612 8.70057 18.612 10.7176 18.1669 12.6591C17.8765 13.9636 17.2278 15.1611 16.2937 16.1169C15.3597 17.0727 14.1774 17.7488 12.8799 18.0691C10.9868 18.5238 9.01296 18.5238 7.11989 18.0691C5.82241 17.7488 4.6401 17.0727 3.70604 16.1169C2.77198 15.1611 2.12325 13.9636 1.83289 12.6591C1.38774 10.7176 1.38774 8.70057 1.83289 6.7591Z" fill="#4C8613" fill-opacity="0.15" stroke="#4C8613" stroke-width="1.5"/>
<path d="M2.13989 5.68501H17.8599H2.13989ZM6.06989 0.406006V2.92001V0.406006ZM13.9299 0.406006V2.92001V0.406006Z" fill="#363853" fill-opacity="0.15"/>
<path d="M2.13989 5.68501H17.8599M6.06989 0.406006V2.92001M13.9299 0.406006V2.92001" stroke="#4C8613" stroke-width="1.5"/>
<path d="M11.4418 11.33C11.6509 11.1852 11.8205 10.9904 11.9353 10.7634C12.05 10.5364 12.1062 10.2843 12.0988 10.03C12.101 9.76971 12.0481 9.51188 11.9435 9.27348C11.839 9.03507 11.6852 8.82148 11.4922 8.64675C11.2993 8.47202 11.0715 8.3401 10.824 8.25965C10.5764 8.17921 10.3146 8.15207 10.0558 8.18002C9.79689 8.1519 9.53499 8.17869 9.28716 8.25864C9.03933 8.33859 8.81115 8.4699 8.61751 8.64401C8.42387 8.81812 8.26912 9.0311 8.16337 9.26906C8.05761 9.50703 8.00323 9.76462 8.00377 10.025C7.9983 10.279 8.05536 10.5304 8.16993 10.7571C8.2845 10.9838 8.45306 11.1788 8.66077 11.325C8.39461 11.4802 8.1744 11.7032 8.02261 11.9713C7.87082 12.2394 7.79289 12.543 7.79677 12.851C7.79677 14.012 8.65177 14.732 10.0558 14.732C11.4598 14.732 12.3148 14.012 12.3148 12.851C12.318 12.5427 12.2388 12.2391 12.0853 11.9717C11.9318 11.7043 11.7096 11.4827 11.4418 11.33ZM10.0558 9.35002C10.1588 9.33848 10.2632 9.34906 10.3619 9.38107C10.4605 9.41308 10.5512 9.46577 10.6279 9.53562C10.7045 9.60547 10.7654 9.69088 10.8064 9.78614C10.8475 9.8814 10.8677 9.98432 10.8658 10.088C10.8671 10.1919 10.8465 10.2949 10.8054 10.3904C10.7643 10.4858 10.7036 10.5715 10.6272 10.642C10.5508 10.7124 10.4604 10.766 10.362 10.7993C10.2636 10.8325 10.1592 10.8447 10.0558 10.835C9.95231 10.8447 9.84798 10.8325 9.74953 10.7993C9.65109 10.766 9.56074 10.7124 9.48436 10.642C9.40797 10.5715 9.34726 10.4858 9.30615 10.3904C9.26505 10.2949 9.24448 10.1919 9.24577 10.088C9.24384 9.98432 9.26407 9.8814 9.3051 9.78614C9.34612 9.69088 9.407 9.60547 9.48367 9.53562C9.56034 9.46577 9.65103 9.41308 9.74969 9.38107C9.84834 9.34906 9.95269 9.33848 10.0558 9.35002ZM10.0558 13.562C9.46177 13.562 9.02977 13.256 9.02977 12.689C9.02977 12.122 9.46177 11.825 10.0558 11.825C10.6498 11.825 11.0818 12.131 11.0818 12.689C11.0818 13.247 10.6498 13.562 10.0558 13.562Z" fill="#4C8613"/>
</svg>
