<svg width="20" height="20" viewBox="0 0 20 20" fill="none" xmlns="http://www.w3.org/2000/svg">
<path d="M11 1.25198C12.0774 0.931964 13.221 0.906776 14.3115 1.17904C15.4019 1.45131 16.3994 2.01107 17.2 2.79998C17.9889 3.60054 18.5487 4.59804 18.8209 5.68852C19.0932 6.779 19.068 7.92255 18.748 8.99998M12.937 3.96398C13.3582 3.89402 13.7901 3.92805 14.1952 4.06313C14.6002 4.1982 14.9661 4.43022 15.261 4.73898C15.5698 5.03389 15.8018 5.39978 15.9369 5.80482C16.0719 6.20987 16.106 6.64178 16.036 7.06298" fill="#4C8613" fill-opacity="0.15"/>
<path d="M11 1.25198C12.0774 0.931964 13.221 0.906776 14.3115 1.17904C15.4019 1.45131 16.3994 2.01107 17.2 2.79998C17.9889 3.60054 18.5487 4.59804 18.8209 5.68852C19.0932 6.779 19.068 7.92255 18.748 8.99998M12.937 3.96398C13.3582 3.89402 13.7901 3.92805 14.1952 4.06313C14.6002 4.1982 14.9661 4.43022 15.261 4.73898C15.5698 5.03389 15.8018 5.39978 15.9369 5.80482C16.0719 6.20987 16.106 6.64178 16.036 7.06298" stroke="#4C8613" stroke-width="1.5" stroke-linecap="round" stroke-linejoin="round"/>
<path d="M12.541 13C11.8996 12.97 11.2723 13.1951 10.7962 13.626C10.3201 14.0569 10.0339 14.6587 10 15.3C10.0003 15.5893 10.0444 15.8769 10.131 16.153L10.214 16.42C10.434 17.0606 10.8255 17.6286 11.3457 18.0623C11.866 18.4961 12.4952 18.7788 13.165 18.88C14.0479 19.0353 14.9511 19.0353 15.834 18.88C16.5038 18.7788 17.133 18.4961 17.6533 18.0623C18.1735 17.6286 18.565 17.0606 18.785 16.42L18.868 16.153C18.9549 15.8769 18.9994 15.5893 19 15.3C18.9661 14.6587 18.6799 14.0569 18.2038 13.626C17.7277 13.1951 17.1004 12.97 16.459 13H12.541Z" fill="#4C8613" fill-opacity="0.15" stroke="#4C8613" stroke-width="1.5"/>
<path d="M7.00001 3.541C7.02996 2.89955 6.80491 2.27231 6.37398 1.79623C5.94305 1.32015 5.34126 1.0339 4.70001 1C4.41069 1.00027 4.12308 1.04444 3.84701 1.131L3.57601 1.214C2.93558 1.43417 2.36774 1.82567 1.93421 2.34594C1.50068 2.86621 1.21804 3.49536 1.11701 4.165C0.961647 5.04788 0.961647 5.95112 1.11701 6.834C1.21813 7.50376 1.50092 8.13298 1.93463 8.65327C2.36835 9.17355 2.93639 9.56498 3.57701 9.785L3.84401 9.868C4.12099 9.9552 4.40963 9.99971 4.70001 10C5.34126 9.96609 5.94305 9.67985 6.37398 9.20377C6.80491 8.72769 7.02996 8.10045 7.00001 7.459V3.541Z" fill="#4C8613" fill-opacity="0.15" stroke="#4C8613" stroke-width="1.5"/>
<path d="M13.1649 18.883C10.174 18.3286 7.42141 16.8804 5.27047 14.7294C3.11952 12.5785 1.67131 9.82592 1.11694 6.83496" fill="#4C8613" fill-opacity="0.15"/>
<path d="M13.1649 18.883C10.174 18.3286 7.42141 16.8804 5.27047 14.7294C3.11952 12.5785 1.67131 9.82592 1.11694 6.83496" stroke="#4C8613" stroke-width="1.5"/>
</svg>
