<svg width="15" height="15" viewBox="0 0 15 15" fill="none" xmlns="http://www.w3.org/2000/svg">
<path d="M9.83898 14.585C6.62098 13.242 1.70498 8.42303 0.405976 5.23103C0.138375 4.79388 -0.00382319 4.29155 -0.00505781 3.77901C-0.00629243 3.26646 0.133484 2.76345 0.398976 2.32503C0.609976 1.97903 1.82398 0.535026 2.90998 0.580026C3.23518 0.623977 3.53461 0.780771 3.75598 1.02303C4.42917 1.71693 4.99719 2.50562 5.44198 3.36403C5.49786 3.79481 5.38419 4.23045 5.12498 4.57903C4.92498 4.93003 4.38898 5.59403 4.52498 5.97903C5.42517 7.98849 7.06037 9.57718 9.09498 10.419C9.47398 10.557 10.139 10.019 10.488 9.81903C10.8344 9.55847 11.2691 9.44396 11.699 9.50003C12.5559 9.95772 13.3421 10.5371 14.033 11.22C14.2733 11.4403 14.4286 11.7379 14.472 12.061C14.512 13.173 13.002 14.442 12.727 14.6C12.3583 14.8661 11.9136 15.0064 11.459 15C10.8953 14.9807 10.3425 14.8391 9.83898 14.585ZM11.125 5.94803C11.0273 5.43807 10.7792 4.96905 10.4126 4.60137C10.0459 4.23369 9.57764 3.98419 9.06798 3.88503C8.89996 3.85254 8.75173 3.75463 8.6559 3.61286C8.56007 3.47108 8.52449 3.29704 8.55698 3.12903C8.58946 2.96101 8.68737 2.81278 8.82914 2.71695C8.97092 2.62112 9.14496 2.58554 9.31298 2.61803C10.0749 2.76541 10.7752 3.13785 11.3233 3.68724C11.8715 4.23663 12.2423 4.93774 12.388 5.70003C12.4201 5.8678 12.3848 6.04147 12.2897 6.18337C12.1946 6.32527 12.0474 6.42396 11.88 6.45803C11.839 6.46532 11.7976 6.469 11.756 6.46903C11.6068 6.46857 11.4623 6.4164 11.3473 6.3214C11.2322 6.2264 11.1537 6.09445 11.125 5.94803ZM13.717 5.89203C13.5907 4.71615 13.0661 3.61882 12.2303 2.78211C11.3945 1.94541 10.2977 1.41963 9.12198 1.29203C8.99421 1.2774 8.8737 1.22503 8.77583 1.14159C8.67796 1.05816 8.60718 0.947459 8.57251 0.823615C8.53785 0.699771 8.54088 0.568407 8.58122 0.446293C8.62155 0.324179 8.69737 0.216856 8.79898 0.138026C8.86373 0.0853957 8.93856 0.0465416 9.01886 0.023844C9.09916 0.00114634 9.18325 -0.0049169 9.26598 0.00602574C10.7336 0.164481 12.1028 0.820592 13.1459 1.86524C14.1889 2.90989 14.8428 4.28011 14.999 5.74803C15.0087 5.8321 15.0018 5.91726 14.9785 5.99864C14.9553 6.08002 14.9162 6.15601 14.8635 6.22225C14.8108 6.28849 14.7456 6.34368 14.6715 6.38466C14.5975 6.42563 14.5161 6.45158 14.432 6.46103C14.4077 6.46271 14.3833 6.46271 14.359 6.46103C14.2006 6.46205 14.0475 6.40452 13.929 6.29949C13.8105 6.19447 13.735 6.04935 13.717 5.89203Z" fill="#4C8613"/>
</svg>
