<svg width="20" height="20" viewBox="0 0 20 20" fill="none" xmlns="http://www.w3.org/2000/svg">
<path d="M6.44101 3.76197C6.64348 2.97185 7.10313 2.27157 7.74751 1.7715C8.39189 1.27142 9.18435 1 10 1C10.8157 1 11.6081 1.27142 12.2525 1.7715C12.8969 2.27157 13.3565 2.97185 13.559 3.76197L13.715 3.79397C14.8738 4.0221 15.9463 4.56798 16.8127 5.3706C17.679 6.17323 18.3052 7.20097 18.621 8.33897C19.1264 10.2054 19.1264 12.1726 18.621 14.039C18.3052 15.177 17.679 16.2047 16.8127 17.0073C15.9463 17.81 14.8738 18.3558 13.715 18.584L13.259 18.677C11.108 19.1146 8.89098 19.1146 6.74001 18.677L6.28401 18.584C5.1248 18.3553 4.05207 17.8086 3.18583 17.005C2.31959 16.2015 1.69398 15.1728 1.37901 14.034C0.873664 12.1676 0.873664 10.2004 1.37901 8.33397C1.6955 7.19671 2.32189 6.16981 3.18822 5.36793C4.05455 4.56606 5.12672 4.02077 6.28501 3.79297L6.44101 3.76197Z" stroke="white" stroke-width="1.5" stroke-linejoin="round"/>
<path d="M7.5 11C7.5 10.5055 7.64662 10.0222 7.92133 9.61108C8.19603 9.19995 8.58648 8.87952 9.04329 8.6903C9.50011 8.50108 10.0028 8.45157 10.4877 8.54804C10.9727 8.6445 11.4181 8.8826 11.7678 9.23223C12.1174 9.58187 12.3555 10.0273 12.452 10.5123C12.5484 10.9972 12.4989 11.4999 12.3097 11.9567C12.1205 12.4135 11.8 12.804 11.3889 13.0787C10.9778 13.3534 10.4945 13.5 10 13.5C9.33696 13.5 8.70107 13.2366 8.23223 12.7678C7.76339 12.2989 7.5 11.663 7.5 11Z" stroke="white" stroke-width="1.5"/>
</svg>
