<svg width="44" height="35" viewBox="0 0 44 35" fill="none" xmlns="http://www.w3.org/2000/svg">
<path d="M7.94296 34.313V32.064C7.95638 31.8747 7.92926 31.6848 7.86343 31.5069C7.79761 31.3289 7.69457 31.1671 7.56122 31.0321C7.42786 30.8971 7.26726 30.7922 7.09012 30.7242C6.91297 30.6563 6.72337 30.6269 6.53397 30.638C6.28633 30.6219 6.03893 30.6725 5.8175 30.7846C5.59608 30.8966 5.40871 31.066 5.27496 31.275C5.1531 31.0722 4.97881 30.906 4.77045 30.7939C4.56208 30.6818 4.32736 30.6279 4.09097 30.638C3.88494 30.6277 3.6798 30.6714 3.49582 30.7647C3.31184 30.858 3.15538 30.9977 3.04196 31.17V30.728H2.26196V34.311H3.04898V32.325C3.03195 32.2024 3.04228 32.0776 3.07922 31.9595C3.11617 31.8414 3.17882 31.7329 3.26266 31.6419C3.34651 31.5509 3.44949 31.4796 3.56418 31.4331C3.67887 31.3866 3.80241 31.366 3.92596 31.373C4.44296 31.373 4.70596 31.71 4.70596 32.317V34.311H5.49298V32.325C5.47723 32.2027 5.48846 32.0783 5.52588 31.9608C5.5633 31.8432 5.62598 31.7353 5.70956 31.6446C5.79315 31.5539 5.89558 31.4825 6.00967 31.4356C6.12376 31.3887 6.24674 31.3673 6.36996 31.373C6.90196 31.373 7.15698 31.71 7.15698 32.317V34.311L7.94296 34.313ZM19.592 30.73H18.318V29.643H17.531V30.73H16.804V31.442H17.531V33.076C17.531 33.908 17.853 34.403 18.775 34.403C19.1192 34.404 19.4568 34.308 19.749 34.126L19.524 33.459C19.3146 33.5829 19.0772 33.6517 18.834 33.659C18.444 33.659 18.317 33.419 18.317 33.059V31.438H19.591L19.592 30.73ZM26.241 30.64C26.0509 30.6345 25.863 30.6804 25.6968 30.7728C25.5307 30.8652 25.3926 31.0007 25.297 31.165V30.73H24.525V34.313H25.305V32.304C25.305 31.712 25.56 31.382 26.07 31.382C26.2366 31.3798 26.4021 31.4104 26.557 31.472L26.797 30.737C26.6186 30.6727 26.4306 30.6392 26.241 30.638V30.64ZM16.189 31.015C15.7476 30.7525 15.2402 30.6224 14.727 30.64C13.82 30.64 13.235 31.075 13.235 31.787C13.235 32.372 13.67 32.732 14.472 32.844L14.839 32.896C15.266 32.956 15.469 33.068 15.469 33.271C15.469 33.548 15.184 33.706 14.652 33.706C14.2238 33.7183 13.8039 33.5863 13.46 33.331L13.093 33.938C13.5472 34.2552 14.0912 34.4183 14.645 34.403C15.679 34.403 16.279 33.916 16.279 33.234C16.279 32.604 15.807 32.275 15.027 32.162L14.66 32.11C14.323 32.065 14.053 31.998 14.053 31.758C14.053 31.496 14.308 31.338 14.735 31.338C15.1274 31.3438 15.5118 31.4494 15.852 31.645L16.189 31.015ZM37.075 30.638C36.885 30.6325 36.697 30.6784 36.5309 30.7708C36.3647 30.8632 36.2266 30.9987 36.131 31.163V30.728H35.359V34.311H36.139V32.302C36.139 31.71 36.394 31.38 36.904 31.38C37.0706 31.3779 37.2361 31.4084 37.391 31.47L37.631 30.735C37.4525 30.6713 37.2645 30.6385 37.075 30.638ZM27.031 32.52C27.0205 32.7724 27.063 33.0242 27.1558 33.2592C27.2485 33.4943 27.3894 33.7072 27.5694 33.8845C27.7494 34.0618 27.9645 34.1994 28.2009 34.2885C28.4373 34.3777 28.6898 34.4163 28.942 34.402C29.4099 34.4255 29.8697 34.2732 30.231 33.975L29.856 33.345C29.5864 33.5503 29.2578 33.6632 28.919 33.667C28.6265 33.6497 28.3516 33.5213 28.1507 33.3081C27.9497 33.0949 27.8377 32.813 27.8377 32.52C27.8377 32.227 27.9497 31.945 28.1507 31.7318C28.3516 31.5186 28.6265 31.3903 28.919 31.373C29.2578 31.3767 29.5864 31.4897 29.856 31.695L30.231 31.065C29.8697 30.7668 29.4099 30.6145 28.942 30.638C28.6898 30.6236 28.4373 30.6621 28.2008 30.7511C27.9644 30.8401 27.7492 30.9776 27.5691 31.1548C27.389 31.3319 27.248 31.5449 27.1552 31.7798C27.0623 32.0148 27.0196 32.2666 27.03 32.519L27.031 32.52ZM34.331 32.52V30.728H33.551V31.163C33.4179 30.9915 33.2457 30.8543 33.0487 30.763C32.8518 30.6717 32.6359 30.6288 32.419 30.638C31.9367 30.6629 31.4825 30.872 31.1499 31.2221C30.8174 31.5722 30.632 32.0366 30.632 32.5195C30.632 33.0024 30.8174 33.4668 31.1499 33.8169C31.4825 34.167 31.9367 34.3761 32.419 34.401C32.6359 34.4103 32.8518 34.3674 33.0488 34.2761C33.2457 34.1848 33.4179 34.0476 33.551 33.876V34.311H34.33L34.331 32.52ZM31.431 32.52C31.4475 32.2737 31.5483 32.0405 31.7164 31.8598C31.8845 31.679 32.1098 31.5616 32.3542 31.5273C32.5987 31.493 32.8476 31.5439 33.059 31.6715C33.2703 31.799 33.4314 31.9954 33.515 32.2277C33.5986 32.46 33.5998 32.714 33.5182 32.947C33.4367 33.18 33.2774 33.3779 33.0672 33.5073C32.8569 33.6367 32.6086 33.6899 32.3638 33.6577C32.119 33.6256 31.8927 33.5103 31.723 33.331C31.6212 33.2234 31.5425 33.0962 31.4918 32.957C31.4411 32.8179 31.4193 32.6698 31.428 32.522L31.431 32.52ZM22.02 30.638C21.5334 30.6631 21.0755 30.8757 20.7424 31.2314C20.4093 31.587 20.2271 32.0579 20.234 32.545C20.2408 33.0322 20.4363 33.4978 20.7792 33.8439C21.1221 34.19 21.5859 34.3897 22.073 34.401C22.6074 34.4203 23.1303 34.2424 23.542 33.901L23.16 33.324C22.864 33.5613 22.4973 33.6933 22.118 33.699C21.8606 33.7195 21.6054 33.6396 21.4056 33.4761C21.2058 33.3127 21.0769 33.0783 21.046 32.822H23.707C23.715 32.722 23.722 32.627 23.722 32.522C23.7448 32.2845 23.7178 32.0449 23.6429 31.8184C23.5679 31.5918 23.4466 31.3834 23.2867 31.2064C23.1268 31.0293 22.9317 30.8875 22.714 30.79C22.4962 30.6925 22.2606 30.6414 22.022 30.64L22.02 30.638ZM22.005 31.338C22.2405 31.3335 22.4683 31.4225 22.6383 31.5855C22.8083 31.7486 22.9067 31.9725 22.912 32.208H21.053C21.0667 31.9674 21.1739 31.7417 21.3518 31.5792C21.5297 31.4166 21.7641 31.3301 22.005 31.338ZM41.562 32.522V29.291H40.782V31.165C40.6489 30.9934 40.4767 30.8562 40.2798 30.7649C40.0828 30.6736 39.8669 30.6307 39.65 30.64C39.1677 30.6649 38.7135 30.8739 38.381 31.2241C38.0484 31.5742 37.863 32.0386 37.863 32.5215C37.863 33.0044 38.0484 33.4688 38.381 33.8189C38.7135 34.1691 39.1677 34.3781 39.65 34.403C39.8669 34.4123 40.0828 34.3694 40.2798 34.2781C40.4767 34.1868 40.6489 34.0496 40.782 33.878V34.313H41.562V32.522ZM42.862 33.794C42.9104 33.7938 42.9583 33.8033 43.003 33.822C43.0458 33.8399 43.0848 33.8657 43.118 33.898C43.151 33.9303 43.1775 33.9687 43.196 34.011C43.2147 34.0546 43.2243 34.1015 43.2243 34.149C43.2243 34.1964 43.2147 34.2434 43.196 34.287C43.1774 34.3293 43.151 34.3676 43.118 34.4C43.0848 34.4326 43.0458 34.4587 43.003 34.477C42.9584 34.496 42.9104 34.5055 42.862 34.505C42.7908 34.5056 42.7209 34.4853 42.6612 34.4465C42.6014 34.4078 42.5544 34.3523 42.526 34.287C42.5073 34.2434 42.4977 34.1964 42.4977 34.149C42.4977 34.1015 42.5073 34.0546 42.526 34.011C42.5442 33.9688 42.5704 33.9304 42.603 33.898C42.6363 33.8653 42.6757 33.8395 42.719 33.822C42.7643 33.8032 42.8129 33.7937 42.862 33.794ZM42.862 34.428C42.8988 34.4281 42.9352 34.4206 42.969 34.406C43.0014 34.3919 43.0309 34.3719 43.056 34.347C43.0881 34.3149 43.1118 34.2754 43.1252 34.232C43.1385 34.1885 43.1409 34.1425 43.1324 34.0979C43.1238 34.0533 43.1044 34.0115 43.0759 33.9761C43.0474 33.9408 43.0107 33.9129 42.969 33.895C42.9351 33.8808 42.8987 33.8736 42.862 33.874C42.8246 33.8736 42.7876 33.8808 42.753 33.895C42.7197 33.9086 42.6895 33.9287 42.664 33.954C42.6251 33.9931 42.5987 34.0429 42.5882 34.0971C42.5777 34.1512 42.5835 34.2073 42.605 34.2581C42.6264 34.3089 42.6625 34.3522 42.7086 34.3824C42.7547 34.4127 42.8088 34.4286 42.864 34.428H42.862ZM42.883 33.984C42.9186 33.9811 42.954 33.9911 42.983 34.012C42.9939 34.0216 43.0026 34.0335 43.0085 34.0468C43.0144 34.0601 43.0172 34.0745 43.017 34.089C43.0175 34.1016 43.0154 34.1141 43.0107 34.1259C43.0061 34.1376 42.999 34.1482 42.99 34.157C42.9684 34.1764 42.9409 34.188 42.912 34.19L43.02 34.315H42.935L42.835 34.191H42.803V34.315H42.732V33.984H42.883ZM42.801 34.046V34.134H42.882C42.8977 34.1349 42.9134 34.131 42.927 34.123C42.9326 34.1194 42.9372 34.1143 42.9402 34.1083C42.9432 34.1023 42.9445 34.0957 42.944 34.089C42.9443 34.0825 42.9429 34.076 42.9399 34.0702C42.9369 34.0644 42.9325 34.0595 42.927 34.056C42.9134 34.048 42.8977 34.0442 42.882 34.045L42.801 34.046ZM38.662 32.522C38.6785 32.2757 38.7793 32.0425 38.9474 31.8618C39.1156 31.681 39.3408 31.5636 39.5853 31.5293C39.8298 31.495 40.0786 31.5459 40.29 31.6735C40.5014 31.801 40.6624 31.9974 40.746 32.2297C40.8296 32.462 40.8308 32.716 40.7492 32.949C40.6677 33.182 40.5084 33.3799 40.2982 33.5093C40.0879 33.6387 39.8396 33.6919 39.5948 33.6598C39.35 33.6277 39.1237 33.5123 38.954 33.333C38.8523 33.225 38.7738 33.0973 38.7234 32.9579C38.6731 32.8184 38.6518 32.67 38.661 32.522H38.662ZM12.336 32.522V30.73H11.556V31.165C11.4229 30.9935 11.2507 30.8563 11.0537 30.765C10.8568 30.6737 10.6409 30.6308 10.424 30.64C9.94175 30.6649 9.48747 30.8739 9.15494 31.2241C8.8224 31.5742 8.63699 32.0386 8.63699 32.5215C8.63699 33.0044 8.8224 33.4688 9.15494 33.8189C9.48747 34.1691 9.94175 34.3781 10.424 34.403C10.6409 34.4123 10.8569 34.3694 11.0538 34.2781C11.2508 34.1868 11.4229 34.0496 11.556 33.878V34.313H12.336V32.522ZM9.43597 32.522C9.45269 32.2757 9.55365 32.0427 9.72189 31.8621C9.89013 31.6815 10.1154 31.5643 10.3599 31.5302C10.6043 31.496 10.8531 31.547 11.0644 31.6747C11.2756 31.8023 11.4366 31.9988 11.5201 32.231C11.6036 32.4633 11.6047 32.7173 11.5231 32.9502C11.4415 33.1832 11.2822 33.3809 11.072 33.5103C10.8617 33.6397 10.6134 33.6928 10.3687 33.6607C10.1239 33.6286 9.89769 33.5132 9.72797 33.334C9.62634 33.2258 9.548 33.0979 9.49777 32.9583C9.44755 32.8186 9.42652 32.6701 9.43597 32.522Z" fill="#C3C3C3"/>
<path d="M27.7379 3.42395H15.9299V24.643H27.7379V3.42395Z" fill="#C3C3C3"/>
<path d="M16.6799 14.034C16.6779 11.9903 17.1409 9.97306 18.0339 8.13485C18.9268 6.29664 20.2263 4.6857 21.8339 3.42397C19.8431 1.85908 17.4522 0.885852 14.9345 0.61556C12.4167 0.345268 9.87376 0.788801 7.59619 1.89547C5.31862 3.00213 3.39836 4.72728 2.0549 6.87371C0.711446 9.02014 -0.000976563 11.5013 -0.000976562 14.0335C-0.000976563 16.5657 0.711446 19.0468 2.0549 21.1932C3.39836 23.3396 5.31862 25.0648 7.59619 26.1714C9.87376 27.2781 12.4167 27.7216 14.9345 27.4513C17.4522 27.1811 19.8431 26.2079 21.8339 24.643C20.2264 23.3813 18.927 21.7705 18.0341 19.9325C17.1411 18.0945 16.6781 16.0774 16.6799 14.034Z" fill="#DBDBDB"/>
<path d="M43.667 14.0339C43.667 16.5659 42.9547 19.0468 41.6113 21.1931C40.268 23.3394 38.3479 25.0644 36.0706 26.171C33.7932 27.2776 31.2504 27.7212 28.7329 27.4509C26.2153 27.1807 23.8246 26.2076 21.834 24.6429C23.4396 23.3796 24.7374 21.7683 25.6299 19.9306C26.5223 18.0928 26.986 16.0764 26.986 14.0334C26.986 11.9904 26.5223 9.97405 25.6299 8.13628C24.7374 6.2985 23.4396 4.68726 21.834 3.42394C23.8246 1.85922 26.2153 0.886111 28.7329 0.615891C31.2504 0.345671 33.7932 0.78922 36.0706 1.89583C38.3479 3.00244 40.268 4.72746 41.6113 6.87373C42.9547 9.02 43.667 11.5009 43.667 14.0329V14.0339Z" fill="#C3C3C3"/>
<path d="M42.3789 22.395V21.961H42.5539V21.8719H42.1079V21.961H42.2829V22.395H42.3789ZM43.2449 22.395V21.871H43.1079L42.9509 22.231L42.7939 21.871H42.6569V22.395H42.7569V21.995L42.9039 22.336H43.0039L43.1519 21.994V22.394L43.2449 22.395Z" fill="#C3C3C3"/>
</svg>
