<svg width="22" height="20" viewBox="0 0 22 20" fill="none" xmlns="http://www.w3.org/2000/svg">
<path d="M1.88485 6.84898C2.2146 5.52094 2.9084 4.31126 3.88818 3.35603C4.86797 2.4008 6.09486 1.73793 7.43085 1.44198L7.88485 1.34198C9.93696 0.887227 12.0637 0.887227 14.1158 1.34198L14.5698 1.44198C15.9056 1.7381 17.1323 2.40104 18.1119 3.35626C19.0915 4.31148 19.7852 5.52107 20.1148 6.84898C20.6283 8.9176 20.6283 11.0804 20.1148 13.149C19.7852 14.4769 19.0915 15.6865 18.1119 16.6417C17.1323 17.5969 15.9056 18.2599 14.5698 18.556L14.1158 18.656C12.0637 19.1107 9.93696 19.1107 7.88485 18.656L7.43085 18.556C6.09512 18.2602 4.86839 17.5976 3.88863 16.6428C2.90887 15.6879 2.21493 14.4787 1.88485 13.151C1.37107 11.0817 1.37107 8.91823 1.88485 6.84898Z" fill="#4C8613" fill-opacity="0.15" stroke="#4C8613" stroke-width="1.5"/>
<path d="M10.9998 4.99997C11.178 4.99486 11.3509 5.06063 11.4807 5.18287C11.6104 5.3051 11.6863 5.47381 11.6918 5.65197V6.18597H11.7688C12.062 6.18597 12.3522 6.24375 12.6231 6.35599C12.8939 6.46823 13.1399 6.63274 13.3471 6.84012C13.5543 7.0475 13.7186 7.29368 13.8306 7.56459C13.9426 7.8355 14.0001 8.12583 13.9998 8.41897C13.9882 8.59476 13.9103 8.75956 13.7817 8.87997C13.6531 9.00037 13.4835 9.06737 13.3073 9.06737C13.1312 9.06737 12.9616 9.00037 12.833 8.87997C12.7044 8.75956 12.6264 8.59476 12.6148 8.41897C12.6252 8.18377 12.542 7.95403 12.3835 7.77996C12.2249 7.60589 12.004 7.50164 11.7688 7.48997H11.6928V9.54297L12.6278 9.86297C13.0831 10.0185 13.4684 10.3307 13.7149 10.7439C13.9614 11.1571 14.0532 11.6444 13.9738 12.1189C13.8944 12.5935 13.649 13.0244 13.2814 13.3349C12.9139 13.6453 12.448 13.8151 11.9668 13.814H11.6928V14.348C11.6873 14.5263 11.6113 14.6952 11.4813 14.8174C11.3514 14.9397 11.1782 15.0054 10.9998 15C10.8216 15.0051 10.6487 14.9393 10.519 14.8171C10.3893 14.6948 10.3133 14.5261 10.3078 14.348V13.814H10.2308C9.93767 13.814 9.6474 13.7562 9.37659 13.644C9.10578 13.5317 8.85975 13.3672 8.65256 13.1598C8.44537 12.9524 8.28107 12.7063 8.16907 12.4354C8.05707 12.1644 7.99956 11.8741 7.99982 11.581C8.00531 11.4028 8.08125 11.2341 8.21099 11.1119C8.34072 10.9896 8.51365 10.9239 8.69182 10.929C8.87 10.9239 9.04292 10.9896 9.17266 11.1119C9.30239 11.2341 9.37833 11.4028 9.38382 11.581C9.37349 11.8162 9.45667 12.0459 9.61519 12.22C9.77371 12.3941 9.99468 12.4983 10.2298 12.51H10.3068V10.457L9.37182 10.137C8.91652 9.98144 8.53126 9.66924 8.28474 9.25605C8.03823 8.84286 7.94649 8.35555 8.02588 7.881C8.10527 7.40646 8.35063 6.97554 8.71821 6.66509C9.08579 6.35464 9.55168 6.18484 10.0328 6.18597H10.3078V5.65197C10.3133 5.47381 10.3893 5.3051 10.519 5.18287C10.6487 5.06063 10.8216 4.99486 10.9998 4.99997ZM10.3078 7.48997H10.0328C9.85072 7.50081 9.68029 7.58322 9.55871 7.71923C9.43712 7.85523 9.37426 8.0338 9.38382 8.21597C9.37948 8.36524 9.42147 8.5122 9.50401 8.63664C9.58656 8.76109 9.70561 8.85692 9.84482 8.91097L10.3068 9.06897L10.3078 7.48997ZM11.6928 10.931V12.51H11.9668C12.1489 12.4991 12.3194 12.4167 12.4409 12.2807C12.5625 12.1447 12.6254 11.9661 12.6158 11.784C12.6202 11.6347 12.5782 11.4877 12.4956 11.3633C12.4131 11.2389 12.294 11.143 12.1548 11.089L11.6928 10.931Z" fill="#4C8613"/>
</svg>
