<svg width="14" height="14" viewBox="0 0 14 14" fill="none" xmlns="http://www.w3.org/2000/svg">
<path d="M4.71601 5.68305L8.59501 1.80405C9.07529 1.34082 9.71824 1.08465 10.3855 1.09068C11.0527 1.09671 11.6909 1.36445 12.1628 1.83628C12.6346 2.30812 12.9024 2.94633 12.9084 3.61358C12.9144 4.28082 12.6582 4.92377 12.195 5.40405L8.31701 9.28405C6.63065 10.9704 4.51767 12.1667 2.20401 12.745L1.45401 12.932C1.40054 12.9455 1.34451 12.9448 1.29139 12.9301C1.23826 12.9154 1.18984 12.8872 1.15087 12.8482C1.11189 12.8092 1.08368 12.7608 1.06898 12.7077C1.05428 12.6545 1.05361 12.5985 1.06701 12.545L1.25401 11.795C1.83283 9.48164 3.02947 7.36902 4.71601 5.68305Z" stroke="#4C8613" stroke-width="0.8"/>
<path d="M11.456 6.14504C9.65602 6.74504 7.25602 4.34504 7.85602 2.54504" stroke="#4C8613" stroke-width="0.8"/>
</svg>
