<svg width="20" height="20" viewBox="0 0 20 20" fill="none" xmlns="http://www.w3.org/2000/svg">
<path d="M1.35297 6.94998C1.67211 5.58757 2.36548 4.34139 3.35493 3.35194C4.34438 2.36249 5.59056 1.66912 6.95297 1.34998C8.95907 0.879353 11.0469 0.879353 13.053 1.34998C14.4154 1.66912 15.6616 2.36249 16.651 3.35194C17.6405 4.34139 18.3338 5.58757 18.653 6.94998C19.1236 8.95608 19.1236 11.0439 18.653 13.05C18.3338 14.4124 17.6405 15.6586 16.651 16.648C15.6616 17.6375 14.4154 18.3308 13.053 18.65C11.0469 19.1206 8.95907 19.1206 6.95297 18.65C5.59056 18.3308 4.34438 17.6375 3.35493 16.648C2.36548 15.6586 1.67211 14.4124 1.35297 13.05C0.882344 11.0439 0.882344 8.95608 1.35297 6.94998Z" fill="#4C8613" fill-opacity="0.15" stroke="#4C8613" stroke-width="1.5"/>
<path d="M8.46304 9.113L11.074 6.5C11.3957 6.17829 11.8321 5.99756 12.287 5.99756C12.742 5.99756 13.1783 6.17829 13.5 6.5C13.8217 6.82171 14.0025 7.25804 14.0025 7.713C14.0025 8.16796 13.8217 8.60429 13.5 8.926L10.887 11.537C9.75186 12.6722 8.32951 13.4776 6.77204 13.867L6.27204 13.993C6.23614 14.0018 6.19859 14.0012 6.16299 13.9912C6.12739 13.9813 6.09497 13.9623 6.06883 13.9362C6.0427 13.9101 6.02374 13.8776 6.01379 13.842C6.00385 13.8065 6.00324 13.7689 6.01204 13.733L6.13804 13.233C6.5252 11.6743 7.32886 10.2502 8.46304 9.113Z" stroke="#4C8613" stroke-width="1.5"/>
<path d="M12.9999 9.424C12.6706 9.47094 12.335 9.4406 12.0195 9.33538C11.704 9.23016 11.4173 9.05295 11.1821 8.81778C10.9469 8.58261 10.7697 8.29592 10.6645 7.98042C10.5593 7.66492 10.529 7.32926 10.5759 7" stroke="#4C8613" stroke-width="1.5"/>
</svg>
