<svg width="16" height="16" viewBox="0 0 16 16" fill="none" xmlns="http://www.w3.org/2000/svg">
<path d="M11.525 0.749023H11.489C10.8035 0.752322 10.1297 0.926396 9.52836 1.25551C8.92705 1.58463 8.41723 2.05841 8.045 2.63402C7.6724 2.05784 7.16195 1.58371 6.55989 1.25456C5.95782 0.925416 5.28316 0.751658 4.597 0.749023H4.561C3.48038 0.759303 2.44753 1.1958 1.68704 1.96359C0.926556 2.73138 0.499951 3.76836 0.5 4.84902C0.590206 6.58858 1.19319 8.26253 2.233 9.66002C3.91175 11.7746 5.86496 13.6558 8.041 15.254C10.217 13.6558 12.1703 11.7746 13.849 9.66002C14.8888 8.26253 15.4918 6.58858 15.582 4.84902C15.5821 3.76905 15.156 2.73266 14.3964 1.96498C13.6368 1.19731 12.6049 0.76035 11.525 0.749023ZM13.033 9.05902C11.5838 10.9014 9.90755 12.5532 8.044 13.975C6.1805 12.5516 4.50424 10.8985 3.055 9.05502C2.14192 7.83199 1.6066 6.36855 1.515 4.84502C1.51445 4.03284 1.83513 3.2534 2.40709 2.67676C2.97904 2.10013 3.75584 1.7731 4.568 1.76702H4.601C5.12309 1.76758 5.63623 1.90258 6.091 2.15902C6.53552 2.40973 6.91289 2.76412 7.191 3.19202C7.28388 3.3325 7.41014 3.44777 7.55847 3.52752C7.7068 3.60727 7.87259 3.64901 8.041 3.64901C8.20941 3.64901 8.3752 3.60727 8.52353 3.52752C8.67186 3.44777 8.79811 3.3325 8.891 3.19202C9.17008 2.76492 9.54723 2.41074 9.991 2.15902C10.4458 1.90258 10.9589 1.76758 11.481 1.76702H11.525C12.3366 1.77388 13.1127 2.10126 13.684 2.67781C14.2553 3.25437 14.5756 4.03336 14.575 4.84502C14.4769 6.36893 13.9403 7.83198 13.03 9.05802L13.033 9.05902Z" fill="#4C8613" stroke="#4C8613" stroke-width="0.5" stroke-miterlimit="10" stroke-linecap="round" stroke-linejoin="round"/>
</svg>
