<svg width="20" height="20" viewBox="0 0 20 20" fill="none" xmlns="http://www.w3.org/2000/svg">
<path d="M1.35297 6.94998C1.67211 5.58757 2.36548 4.34139 3.35493 3.35194C4.34438 2.36249 5.59056 1.66912 6.95297 1.34998C8.95907 0.879353 11.0469 0.879353 13.053 1.34998C14.4154 1.66912 15.6616 2.36249 16.651 3.35194C17.6405 4.34139 18.3338 5.58757 18.653 6.94998C19.1236 8.95608 19.1236 11.0439 18.653 13.05C18.3338 14.4124 17.6405 15.6586 16.651 16.648C15.6616 17.6375 14.4154 18.3308 13.053 18.65C11.0469 19.1206 8.95907 19.1206 6.95297 18.65C5.59056 18.3308 4.34438 17.6375 3.35493 16.648C2.36548 15.6586 1.67211 14.4124 1.35297 13.05C0.882344 11.0439 0.882344 8.95608 1.35297 6.94998Z" fill="#4C8613" fill-opacity="0.15" stroke="#4C8613" stroke-width="1.5"/>
<path d="M10 13.5V9.49997V13.5Z" fill="#4C8613" fill-opacity="0.15"/>
<path d="M10 13.5V9.49997" stroke="#4C8613" stroke-width="1.5" stroke-linecap="round" stroke-linejoin="round"/>
<path d="M10 7.99997C10.5523 7.99997 11 7.55225 11 6.99997C11 6.44768 10.5523 5.99997 10 5.99997C9.44772 5.99997 9 6.44768 9 6.99997C9 7.55225 9.44772 7.99997 10 7.99997Z" fill="#4C8613" fill-opacity="0.15"/>
<path d="M10 7.49997C10.2761 7.49997 10.5 7.27611 10.5 6.99997C10.5 6.72383 10.2761 6.49997 10 6.49997C9.72386 6.49997 9.5 6.72383 9.5 6.99997C9.5 7.27611 9.72386 7.49997 10 7.49997Z" stroke="#4C8613" stroke-linecap="round" stroke-linejoin="round"/>
</svg>
