<svg width="12" height="15" viewBox="0 0 12 15" fill="none" xmlns="http://www.w3.org/2000/svg">
<path d="M6.00007 15C5.81249 14.9922 5.63175 14.9273 5.48207 14.814C3.96049 13.7702 2.63628 12.4647 1.57107 10.958C0.565283 9.5884 0.0156894 7.93717 7.37774e-05 6.238C-0.00787056 4.59306 0.626047 3.00988 1.76707 1.825C2.31198 1.2496 2.96825 0.791086 3.69596 0.477343C4.42367 0.1636 5.20761 0.00119149 6.00007 0C7.62191 0.0346715 9.16393 0.710588 10.2885 1.87975C11.413 3.04891 12.0285 4.61604 12.0001 6.238C11.9836 7.9375 11.4329 9.58876 10.4261 10.958C9.35618 12.4607 8.03274 13.7655 6.51507 14.814C6.36689 14.928 6.18689 14.993 6.00007 15ZM6.00007 4.333C5.45992 4.35051 4.94872 4.58132 4.57837 4.9749C4.20802 5.36849 4.00871 5.89279 4.02407 6.433C4.01834 6.97824 4.2249 7.50432 4.60007 7.9C4.78031 8.09003 4.99744 8.24127 5.23817 8.34444C5.4789 8.44761 5.73817 8.50054 6.00007 8.5C6.53648 8.4874 7.04605 8.26285 7.41731 7.87548C7.78857 7.48811 7.99127 6.96945 7.98107 6.433C7.98405 5.88347 7.77609 5.35375 7.40007 4.953C7.22184 4.75901 7.00554 4.60383 6.76466 4.49716C6.52379 4.39048 6.26351 4.3346 6.00007 4.333Z" fill="#4C8613"/>
</svg>
