<svg width="18" height="20" viewBox="0 0 18 20" fill="none" xmlns="http://www.w3.org/2000/svg">
<path d="M17 9.175C17 13.691 13.418 19 8.99997 19C4.58197 19 0.999975 13.691 0.999975 9.175C0.977041 7.03014 1.80695 4.96399 3.30718 3.43094C4.80741 1.89789 6.85512 1.02348 8.99997 1C11.1448 1.02348 13.1925 1.89789 14.6928 3.43094C16.193 4.96399 17.0229 7.03014 17 9.175Z" fill="#4C8613" fill-opacity="0.15" stroke="#4C8613" stroke-width="1.5"/>
<path d="M6.5 8.5C6.5 8.00555 6.64662 7.5222 6.92133 7.11108C7.19603 6.69995 7.58648 6.37952 8.04329 6.1903C8.50011 6.00108 9.00277 5.95157 9.48773 6.04804C9.97268 6.1445 10.4181 6.3826 10.7678 6.73223C11.1174 7.08187 11.3555 7.52732 11.452 8.01228C11.5484 8.49723 11.4989 8.99989 11.3097 9.45671C11.1205 9.91353 10.8 10.304 10.3889 10.5787C9.9778 10.8534 9.49445 11 9 11C8.33696 11 7.70107 10.7366 7.23223 10.2678C6.76339 9.79893 6.5 9.16304 6.5 8.5Z" stroke="#4C8613" stroke-width="1.5"/>
</svg>
