<svg width="15" height="13" viewBox="0 0 15 13" fill="none" xmlns="http://www.w3.org/2000/svg">
<path d="M11.2001 13H3.79512C2.80865 13.0183 1.8552 12.6446 1.14381 11.9609C0.432418 11.2773 0.0211319 10.3394 0.00012207 9.35303L0.00012207 3.64703C0.0211319 2.66061 0.432418 1.72277 1.14381 1.03912C1.8552 0.355475 2.80865 -0.0181988 3.79512 2.63512e-05H11.2001C12.201 -0.00226021 13.1643 0.380914 13.8901 1.07003C14.2404 1.40172 14.5195 1.80126 14.7103 2.24431C14.9011 2.68736 14.9997 3.16463 15.0001 3.64703V9.35303C14.9789 10.3402 14.5668 11.2787 13.8544 11.9624C13.142 12.6462 12.1874 13.0193 11.2001 13ZM3.02612 3.78803C2.95205 3.78723 2.87855 3.80114 2.80989 3.82895C2.74123 3.85675 2.67877 3.89791 2.62612 3.95003C2.52884 4.04209 2.46947 4.16718 2.45967 4.30075C2.44986 4.43433 2.49033 4.56675 2.57312 4.67203L2.67312 4.76603L6.08212 7.33103C6.50244 7.65129 7.0167 7.82388 7.54512 7.82203C8.07507 7.82195 8.59064 7.64963 9.01412 7.33103L12.4001 4.72403L12.4601 4.66603C12.5474 4.5655 12.5947 4.43642 12.593 4.30331C12.5914 4.17021 12.5409 4.04235 12.4511 3.94403C12.3447 3.83534 12.2027 3.7686 12.0511 3.75603H12.0191C11.8757 3.75465 11.7368 3.80629 11.6291 3.90103L8.25012 6.50003C8.03766 6.66862 7.77435 6.76027 7.50312 6.76003C7.23014 6.75983 6.96507 6.6683 6.75012 6.50003L3.37512 3.90003C3.27332 3.8272 3.15129 3.78804 3.02612 3.78803Z" fill="#4C8613"/>
</svg>
