<svg width="31" height="24" viewBox="0 0 31 24" fill="none" xmlns="http://www.w3.org/2000/svg">
<path d="M29.5219 19.948V22.009C29.5219 22.727 27.648 23.289 25.338 23.289C23.028 23.289 21.1849 22.727 21.1849 22.009V20.167C21.5289 20.76 23.2459 21.229 25.3069 21.229C27.3679 21.229 29.5219 20.636 29.5219 19.949V19.948Z" fill="#DAFFB7"/>
<path d="M29.5219 17.95V19.95C29.5219 20.637 27.5859 21.2299 25.3069 21.2299C23.0279 21.2299 21.5289 20.762 21.1849 20.168V18.045C21.4349 18.67 23.1849 19.169 25.3069 19.169C27.4289 19.169 29.3659 18.637 29.5219 17.95Z" fill="#DAFFB7"/>
<path d="M29.5229 17.951C29.3669 18.638 27.5229 19.1691 25.3079 19.1691C23.0929 19.1691 21.4359 18.6691 21.1859 18.0451C21.1635 17.9962 21.1529 17.9428 21.1549 17.8891V17.7331C21.3739 17.1081 23.1219 16.6091 25.2459 16.6091H25.3079C26.419 16.5871 27.5263 16.7452 28.5869 17.077C29.1799 17.296 29.5239 17.5771 29.5239 17.8891L29.5229 17.951Z" fill="#F3FFE8"/>
<path d="M25.2449 14.326V12.486C25.2944 12.4126 25.3164 12.3241 25.3069 12.236C25.3014 12.1452 25.2727 12.0573 25.2235 11.9808C25.1743 11.9043 25.1062 11.8417 25.0259 11.799V4.86601H26.8679C27.0934 4.8619 27.3175 4.90225 27.5273 4.98477C27.7372 5.06728 27.9288 5.19034 28.0911 5.3469C28.2534 5.50347 28.3834 5.69048 28.4734 5.89726C28.5634 6.10403 28.6118 6.32652 28.6159 6.55201C28.6159 6.56301 28.6159 6.57301 28.6159 6.58401V17.076H28.5849C27.5243 16.7441 26.417 16.5861 25.3059 16.608H25.2439L25.2449 14.326Z" fill="#F3FFE8"/>
<path d="M25.0229 11.799C25.1033 11.8417 25.1713 11.9043 25.2205 11.9808C25.2697 12.0573 25.2984 12.1452 25.3039 12.236C25.3134 12.324 25.2914 12.4126 25.2419 12.486C24.8669 13.079 23.0249 13.516 20.9949 13.516C18.9649 13.516 16.9669 12.985 16.8419 12.329C16.8306 12.3163 16.822 12.3014 16.8167 12.2852C16.8114 12.2691 16.8094 12.252 16.8109 12.235C16.8109 11.548 18.6849 10.955 20.9949 10.955C22.3895 10.8632 23.7825 11.1551 25.0229 11.799Z" fill="#F3FFE8"/>
<path d="M25.2439 16.233V16.608C23.1209 16.608 21.3719 17.108 21.1529 17.732L20.9969 17.67L19.7789 17.608H19.6539C19.4787 16.7263 19.0043 15.9321 18.3109 15.36V15.298C19.1809 15.499 20.0721 15.5933 20.9649 15.5789C23.1819 15.5789 25.0869 15.017 25.2119 14.33L25.2439 16.233Z" fill="#F3FFE8"/>
<path d="M25.2419 12.486V14.3289C25.1169 15.0159 23.2119 15.5779 20.9949 15.5779C20.1021 15.5924 19.2109 15.4981 18.3409 15.297V15.3589C17.9304 14.9823 17.4392 14.7046 16.9049 14.547V12.361C17.0299 13.017 18.8409 13.548 21.0579 13.548C23.2749 13.548 24.8699 13.079 25.2419 12.486Z" fill="#DAFFB7"/>
<path d="M25.0259 4.867V11.799C23.7854 11.1555 22.3924 10.8639 20.9979 10.956C18.6869 10.956 16.8139 11.549 16.8139 12.236C16.8124 12.253 16.8144 12.27 16.8197 12.2862C16.8251 12.3024 16.8336 12.3173 16.8449 12.33V14.516C16.4516 14.3885 16.0403 14.3254 15.6269 14.329C14.6209 14.3341 13.6527 14.7125 12.9099 15.391L12.8159 15.297H2.69993C2.23658 15.297 1.79217 15.1131 1.46426 14.7858C1.13634 14.4584 0.951722 14.0144 0.950928 13.551V2.77401C0.959314 2.31571 1.14728 1.87903 1.47437 1.55791C1.80147 1.2368 2.24156 1.05693 2.69993 1.05701H23.3089C23.7643 1.05701 24.201 1.23791 24.523 1.55991C24.845 1.88191 25.0259 2.31863 25.0259 2.77401V4.867ZM17.4689 8.17701C17.4689 7.28699 17.205 6.41696 16.7105 5.67694C16.2161 4.93692 15.5133 4.36014 14.691 4.01955C13.8687 3.67895 12.9639 3.58984 12.091 3.76347C11.2181 3.93711 10.4163 4.36569 9.78695 4.99503C9.15761 5.62436 8.72903 6.42619 8.55539 7.2991C8.38176 8.17202 8.47087 9.07682 8.81147 9.89909C9.15206 10.7214 9.72884 11.4242 10.4689 11.9186C11.2089 12.4131 12.0789 12.677 12.9689 12.677H12.9999C14.1882 12.6688 15.325 12.191 16.1622 11.3477C16.9995 10.5045 17.4692 9.3653 17.4689 8.17701ZM5.35693 4.08601C5.35693 3.83898 5.28367 3.59749 5.14643 3.3921C5.00919 3.1867 4.81412 3.02662 4.5859 2.93208C4.35767 2.83755 4.10654 2.81281 3.86426 2.86101C3.62198 2.9092 3.39943 3.02815 3.22475 3.20283C3.05007 3.3775 2.93112 3.60006 2.88293 3.84234C2.83473 4.08462 2.85947 4.33576 2.954 4.56398C3.04854 4.79221 3.20862 4.98727 3.41402 5.12451C3.61942 5.26175 3.8609 5.33501 4.10793 5.33501C4.43918 5.33501 4.75687 5.20342 4.9911 4.96918C5.22534 4.73495 5.35693 4.41726 5.35693 4.08601Z" fill="#F3FFE8"/>
<path d="M21.1849 20.1671V21.791H20.9659C20.1143 21.8062 19.2643 21.7118 18.4369 21.51H18.3749C18.8007 21.1293 19.1407 20.6623 19.3723 20.14C19.6038 19.6178 19.7216 19.0523 19.7179 18.481C19.7175 18.1975 19.686 17.9148 19.6239 17.6381H19.7489L20.9669 17.7L21.1229 17.7621V17.9181C21.1209 17.9718 21.1315 18.0252 21.1539 18.074H21.1229L21.1849 20.1671Z" fill="#DAFFB7"/>
<path d="M19.655 17.6061C19.7171 17.8828 19.7486 18.1655 19.749 18.4491C19.7508 19.479 19.3634 20.4715 18.6643 21.2278C17.9653 21.9841 17.0062 22.4483 15.9794 22.5273C14.9525 22.6064 13.9337 22.2944 13.1271 21.654C12.3205 21.0137 11.7858 20.0921 11.63 19.0741C11.5939 18.8675 11.5732 18.6586 11.568 18.4491C11.564 17.8748 11.6849 17.3065 11.9221 16.7836C12.1593 16.2606 12.5073 15.7954 12.942 15.4201C13.6847 14.7416 14.653 14.3631 15.659 14.3581C16.0724 14.3544 16.4837 14.4176 16.877 14.5451C17.4113 14.7027 17.9025 14.9804 18.313 15.3571C19.0062 15.9296 19.4802 16.7241 19.655 17.6061ZM17.755 18.4491C17.755 18.0353 17.6323 17.6308 17.4024 17.2868C17.1725 16.9428 16.8458 16.6746 16.4635 16.5163C16.0813 16.358 15.6606 16.3166 15.2548 16.3973C14.849 16.478 14.4763 16.6772 14.1837 16.9698C13.8911 17.2624 13.6919 17.6351 13.6112 18.0409C13.5304 18.4467 13.5719 18.8674 13.7302 19.2496C13.8885 19.6319 14.1567 19.9586 14.5007 20.1885C14.8447 20.4184 15.2492 20.5411 15.663 20.5411C16.2169 20.5397 16.7477 20.3188 17.139 19.9266C17.5302 19.5344 17.75 19.003 17.75 18.4491H17.755Z" fill="#F3FFE8"/>
<path d="M15.6579 16.358C16.0717 16.358 16.4761 16.4807 16.8202 16.7106C17.1642 16.9405 17.4323 17.2672 17.5907 17.6494C17.749 18.0317 17.7904 18.4523 17.7097 18.8582C17.629 19.264 17.4297 19.6367 17.1372 19.9293C16.8446 20.2219 16.4718 20.4211 16.066 20.5018C15.6602 20.5826 15.2396 20.5411 14.8573 20.3828C14.4751 20.2244 14.1484 19.9563 13.9185 19.6123C13.6886 19.2682 13.5659 18.8638 13.5659 18.45C13.5659 18.1753 13.62 17.9033 13.7252 17.6494C13.8303 17.3956 13.9844 17.165 14.1786 16.9708C14.3729 16.7765 14.6035 16.6224 14.8573 16.5173C15.1112 16.4121 15.3832 16.358 15.6579 16.358Z" fill="#DAFFB7"/>
<path d="M13.0049 3.68005C13.8949 3.68005 14.7649 3.94397 15.5049 4.43844C16.245 4.9329 16.8217 5.63571 17.1623 6.45798C17.5029 7.28024 17.592 8.18505 17.4184 9.05796C17.2448 9.93087 16.8162 10.7327 16.1869 11.362C15.5575 11.9914 14.7557 12.42 13.8828 12.5936C13.0099 12.7672 12.1051 12.6781 11.2828 12.3375C10.4605 11.9969 9.75773 11.4201 9.26326 10.6801C8.76879 9.94009 8.50488 9.07007 8.50488 8.18005C8.50488 6.98658 8.97898 5.84198 9.82289 4.99807C10.6668 4.15416 11.8114 3.68005 13.0049 3.68005Z" fill="#DAFFB7"/>
<path d="M12.848 15.327L12.942 15.421C12.5073 15.7963 12.1594 16.2615 11.9221 16.7845C11.6849 17.3075 11.5641 17.8758 11.568 18.45C11.5732 18.6596 11.5939 18.8685 11.63 19.075H6.259C5.80362 19.075 5.36689 18.8941 5.04489 18.5721C4.72289 18.2501 4.54199 17.8134 4.54199 17.358V15.328L12.848 15.327Z" fill="#F3FFE8"/>
<path d="M4.10496 5.33504C4.79476 5.33504 5.35396 4.77584 5.35396 4.08604C5.35396 3.39623 4.79476 2.83704 4.10496 2.83704C3.41515 2.83704 2.85596 3.39623 2.85596 4.08604C2.85596 4.77584 3.41515 5.33504 4.10496 5.33504Z" fill="#DAFFB7"/>
<path d="M4.10496 5.96004C3.73431 5.96004 3.372 5.85013 3.06382 5.64422C2.75564 5.4383 2.51545 5.14562 2.37361 4.80319C2.23177 4.46076 2.19466 4.08396 2.26697 3.72044C2.33928 3.35692 2.51776 3.02301 2.77984 2.76092C3.04192 2.49884 3.37584 2.32035 3.73936 2.24804C4.10288 2.17574 4.47968 2.21285 4.82211 2.35469C5.16454 2.49653 5.45721 2.73673 5.66313 3.0449C5.86905 3.35308 5.97896 3.7154 5.97896 4.08604C5.97896 4.58306 5.78152 5.05972 5.43008 5.41116C5.07863 5.7626 4.60197 5.96004 4.10496 5.96004ZM4.10496 3.46004C3.98134 3.46004 3.86051 3.4967 3.75773 3.56537C3.65495 3.63405 3.57484 3.73166 3.52753 3.84586C3.48023 3.96007 3.46785 4.08573 3.49197 4.20697C3.51608 4.32821 3.57561 4.43958 3.66302 4.52698C3.75042 4.61439 3.86179 4.67392 3.98303 4.69803C4.10427 4.72215 4.22993 4.70977 4.34413 4.66247C4.45834 4.61516 4.55595 4.53505 4.62462 4.43227C4.6933 4.32949 4.72996 4.20866 4.72996 4.08504C4.72983 4.0031 4.71356 3.92198 4.68208 3.84632C4.6506 3.77066 4.60452 3.70195 4.54648 3.6441C4.48845 3.58625 4.41959 3.54039 4.34383 3.50915C4.26807 3.47792 4.1869 3.46191 4.10496 3.46204V3.46004Z" fill="#4C8613"/>
<path d="M30.1779 17.888C30.1731 17.6202 30.0869 17.3603 29.9308 17.1427C29.7747 16.9252 29.556 16.7603 29.3039 16.67V6.58398C29.2934 6.27684 29.2215 5.97492 29.0923 5.69605C28.9631 5.41719 28.7794 5.16703 28.552 4.96036C28.3245 4.75369 28.0579 4.59471 27.768 4.49279C27.4781 4.39087 27.1707 4.34809 26.8639 4.36698H25.5569V2.77498C25.5776 2.15192 25.3542 1.54541 24.9343 1.08462C24.5144 0.623831 23.9312 0.34517 23.3089 0.307983H2.69992C2.05602 0.331494 1.44537 0.599888 0.992653 1.05837C0.539934 1.51685 0.279283 2.13084 0.263916 2.77498L0.263916 13.575C0.279137 14.2077 0.543647 14.8087 0.999874 15.2474C1.4561 15.686 2.06711 15.9267 2.69992 15.917H4.01092V17.385C4.00226 17.6762 4.05109 17.9663 4.15464 18.2387C4.25818 18.5111 4.4144 18.7604 4.61436 18.9723C4.81433 19.1842 5.05411 19.3547 5.31999 19.4739C5.58588 19.5931 5.87265 19.6587 6.16392 19.667H11.1299C11.3833 20.6707 11.9684 21.5592 12.7904 22.1884C13.6124 22.8176 14.6229 23.1505 15.6579 23.133C16.6964 23.1378 17.7071 22.7973 18.5309 22.165C19.2407 22.306 19.9623 22.3794 20.6859 22.384C21.1229 23.508 23.4029 23.914 25.3699 23.914C27.3369 23.914 30.1789 23.508 30.1789 22.014V17.888H30.1779ZM25.5569 5.61598H26.8639C27.0057 5.60023 27.1491 5.61289 27.2859 5.65322C27.4227 5.69355 27.5501 5.76074 27.6606 5.85087C27.7711 5.941 27.8625 6.05225 27.9296 6.17812C27.9966 6.304 28.0378 6.44197 28.0509 6.58398V16.233C27.3296 16.0946 26.5988 16.0111 25.8649 15.983V12.611C25.9057 12.4904 25.9163 12.3616 25.8959 12.236C25.8996 12.0977 25.8705 11.9605 25.8109 11.8357C25.7512 11.7109 25.6628 11.602 25.5529 11.518L25.5569 5.61598ZM25.2439 17.17H25.3059C26.3567 17.1791 27.3957 17.3913 28.3659 17.795C28.5257 17.792 28.6811 17.8475 28.8029 17.951C27.7057 18.4449 26.5033 18.6596 25.3029 18.576C24.1039 18.6549 22.9059 18.4068 21.8369 17.858C22.8898 17.3256 24.067 17.0879 25.2439 17.17ZM24.6189 14.204C23.5116 14.8067 22.2542 15.0778 20.9969 14.985C20.156 14.9794 19.3181 14.8853 18.4969 14.704C18.194 14.459 17.8572 14.2593 17.4969 14.111V13.611C18.6128 13.9884 19.7862 14.1675 20.9639 14.14C22.2019 14.1562 23.4348 13.977 24.6169 13.609L24.6189 14.204ZM24.4939 12.304C23.3826 12.748 22.1895 12.9502 20.9939 12.897C19.8035 12.9475 18.6175 12.723 17.5279 12.241C18.6081 11.7294 19.8015 11.5036 20.9939 11.585C22.1702 11.4983 23.3498 11.7019 24.4289 12.178C24.4392 12.2237 24.4621 12.2656 24.4949 12.299L24.4939 12.304ZM2.69392 14.677C2.39255 14.6858 2.09969 14.5764 1.8779 14.3721C1.65611 14.1679 1.52297 13.885 1.50692 13.584V2.78398C1.5213 2.47083 1.65009 2.17384 1.86888 1.94934C2.08767 1.72484 2.38124 1.58843 2.69392 1.56598H23.3079C23.5988 1.60259 23.8645 1.74926 24.0505 1.97581C24.2365 2.20237 24.3286 2.49158 24.3079 2.78398V10.8C23.2127 10.4806 22.0767 10.3229 20.9359 10.332C19.6896 10.3057 18.4496 10.5178 17.2829 10.957C17.8217 10.131 18.1042 9.16412 18.0949 8.17798C18.0949 7.16514 17.7946 6.17505 17.2319 5.3329C16.6692 4.49076 15.8694 3.83439 14.9336 3.4468C13.9979 3.0592 12.9682 2.95779 11.9749 3.15538C10.9815 3.35298 10.069 3.8407 9.35282 4.55689C8.63664 5.27307 8.14891 6.18555 7.95131 7.17892C7.75372 8.1723 7.85513 9.20196 8.24273 10.1377C8.63033 11.0734 9.2867 11.8732 10.1288 12.4359C10.971 12.9986 11.9611 13.299 12.9739 13.299H13.0049C14.1623 13.2904 15.2835 12.8947 16.1899 12.175V12.24C16.1826 12.3144 16.1932 12.3895 16.2209 12.459V13.77H15.6589C14.6339 13.7585 13.6341 14.0881 12.8169 14.707L2.69392 14.677ZM12.9939 12.054C12.228 12.0601 11.4775 11.8389 10.8373 11.4184C10.1971 10.9979 9.69604 10.397 9.39742 9.69172C9.09881 8.9864 9.01608 8.20836 9.15971 7.45602C9.30333 6.70368 9.66686 6.01084 10.2043 5.46513C10.7418 4.91943 11.429 4.54538 12.179 4.3903C12.9291 4.23522 13.7083 4.30608 14.4181 4.59391C15.1279 4.88175 15.7364 5.37362 16.1666 6.00732C16.5968 6.64102 16.8294 7.38807 16.8349 8.15398C16.8349 8.16398 16.8349 8.17498 16.8349 8.18498C16.8329 9.20345 16.4296 10.1801 15.7126 10.9034C14.9955 11.6266 14.0223 12.0382 13.0039 12.049L12.9939 12.054ZM10.9329 18.393H6.26392C6.13678 18.3973 6.01005 18.3764 5.89096 18.3317C5.77188 18.2869 5.66279 18.2192 5.56991 18.1323C5.47704 18.0453 5.40221 17.9409 5.34971 17.8251C5.2972 17.7092 5.26805 17.5841 5.26392 17.457C5.26392 17.4356 5.26392 17.4146 5.26392 17.394V15.921H11.6959C11.2007 16.648 10.9381 17.5083 10.9429 18.388L10.9329 18.393ZM17.9899 21.016C17.3437 21.59 16.5122 21.9117 15.6479 21.922C14.8269 21.9093 14.0366 21.6083 13.415 21.0718C12.7935 20.5353 12.3804 19.7973 12.2479 18.987C12.2119 18.8121 12.1912 18.6344 12.1859 18.456C12.1859 17.5367 12.5511 16.6551 13.2011 16.0051C13.8511 15.3551 14.7327 14.99 15.6519 14.99C16.0006 14.9961 16.347 15.0486 16.6819 15.146C17.1373 15.2735 17.5552 15.5092 17.8999 15.833C18.4812 16.3239 18.8867 16.9909 19.0549 17.733C19.0924 17.9601 19.1132 18.1898 19.1169 18.42C19.1221 18.9067 19.0247 19.3891 18.831 19.8357C18.6373 20.2823 18.3518 20.6831 17.9929 21.012L17.9899 21.016ZM19.5509 21.078C19.715 20.8284 19.861 20.5674 19.9879 20.297H20.5639V21.14L19.5509 21.078ZM20.3629 18.268H20.5189V19.08H20.2689C20.305 18.8735 20.3257 18.6646 20.3309 18.455L20.3629 18.268ZM20.9039 17.04H20.1549C20.068 16.7435 19.9419 16.46 19.7799 16.197L20.9979 16.259C22.2324 16.2628 23.4581 16.0513 24.6199 15.634V15.977C23.3007 15.9352 22.0014 16.3068 20.9039 17.04ZM21.8099 19.257C22.9377 19.6327 24.1215 19.8123 25.3099 19.788C26.5291 19.7919 27.7412 19.6022 28.9009 19.226V19.819C28.6819 20.069 27.4649 20.568 25.3099 20.568C23.1549 20.568 22.1249 20.162 21.8099 19.912V19.257ZM25.3699 22.657C23.3089 22.657 22.0599 22.189 21.8409 21.939V21.314C22.9576 21.6871 24.1298 21.8667 25.3069 21.845C26.5369 21.8571 27.7605 21.6672 28.9289 21.283V21.939C27.8349 22.5132 26.6005 22.7653 25.3689 22.666L25.3699 22.657Z" fill="#4C8613"/>
<path d="M15.6589 21.1659C15.1215 21.1659 14.5962 21.0066 14.1494 20.708C13.7026 20.4095 13.3544 19.9852 13.1487 19.4887C12.9431 18.9922 12.8893 18.4459 12.9941 17.9189C13.0989 17.3918 13.3577 16.9077 13.7377 16.5277C14.1177 16.1478 14.6018 15.889 15.1288 15.7841C15.6559 15.6793 16.2022 15.7331 16.6986 15.9387C17.1951 16.1444 17.6194 16.4926 17.918 16.9394C18.2165 17.3863 18.3759 17.9116 18.3759 18.4489C18.3759 19.1695 18.0896 19.8606 17.5801 20.3701C17.0706 20.8797 16.3795 21.1659 15.6589 21.1659ZM15.6589 16.9819C15.3685 16.9819 15.0847 17.068 14.8433 17.2293C14.6019 17.3906 14.4137 17.6199 14.3026 17.8881C14.1915 18.1564 14.1625 18.4516 14.2191 18.7363C14.2757 19.0211 14.4156 19.2827 14.6209 19.488C14.8262 19.6933 15.0877 19.8331 15.3725 19.8897C15.6573 19.9464 15.9524 19.9173 16.2207 19.8062C16.4889 19.6951 16.7182 19.5069 16.8795 19.2655C17.0408 19.0241 17.1269 18.7403 17.1269 18.4499C17.1269 18.0606 16.9722 17.6872 16.6969 17.4119C16.4216 17.1366 16.0482 16.9819 15.6589 16.9819Z" fill="#4C8613"/>
</svg>
