<svg width="20" height="20" viewBox="0 0 20 20" fill="none" xmlns="http://www.w3.org/2000/svg">
<path d="M6.95004 18.647C5.58763 18.3278 4.34145 17.6345 3.352 16.645C2.36255 15.6556 1.66918 14.4094 1.35004 13.047C0.879414 11.0409 0.879414 8.95309 1.35004 6.94699C1.66918 5.58457 2.36255 4.3384 3.352 3.34895C4.34145 2.3595 5.58763 1.66613 6.95004 1.34699C8.95614 0.876362 11.0439 0.876362 13.05 1.34699C14.4125 1.66613 15.6586 2.3595 16.6481 3.34895C17.6375 4.3384 18.3309 5.58457 18.65 6.94699C19.1207 8.95309 19.1207 11.0409 18.65 13.047C18.3309 14.4094 17.6375 15.6556 16.6481 16.645C15.6586 17.6345 14.4125 18.3278 13.05 18.647C11.0439 19.1176 8.95614 19.1176 6.95004 18.647Z" fill="#4C8613" fill-opacity="0.15" stroke="#4C8613" stroke-width="1.5"/>
<path d="M10 14.5C10.5523 14.5 11 14.0523 11 13.5C11 12.9477 10.5523 12.5 10 12.5C9.44772 12.5 9 12.9477 9 13.5C9 14.0523 9.44772 14.5 10 14.5Z" fill="#4C8613"/>
<path d="M8 8V5.5H12V8.5L10 10.5" fill="#363853" fill-opacity="0.15"/>
<path d="M8 8V5.5H12V8.5L10 10.5" stroke="#4C8613" stroke-width="1.5" stroke-linecap="round" stroke-linejoin="round"/>
</svg>
