<svg width="21" height="20" viewBox="0 0 21 20" fill="none" xmlns="http://www.w3.org/2000/svg">
<path d="M1.85297 6.94998C2.17211 5.58757 2.86548 4.34139 3.85493 3.35194C4.84438 2.36249 6.09056 1.66912 7.45297 1.34998C9.45907 0.879353 11.5469 0.879353 13.553 1.34998C14.9154 1.66912 16.1616 2.36249 17.151 3.35194C18.1405 4.34139 18.8338 5.58757 19.153 6.94998C19.6236 8.95608 19.6236 11.0439 19.153 13.05C18.8338 14.4124 18.1405 15.6586 17.151 16.648C16.1616 17.6375 14.9154 18.3308 13.553 18.65C11.5469 19.1206 9.45907 19.1206 7.45297 18.65C6.09056 18.3308 4.84438 17.6375 3.85493 16.648C2.86548 15.6586 2.17211 14.4124 1.85297 13.05C1.38234 11.0439 1.38234 8.95608 1.85297 6.94998Z" fill="#4C8613" fill-opacity="0.15" stroke="#4C8613" stroke-width="1.5"/>
<path d="M12.18 10.651C11.8602 10.6507 11.5498 10.7593 11.3 10.959L9.79205 10.016C9.83664 9.81408 9.83664 9.60488 9.79205 9.40298L11.3 8.45998C11.5604 8.66671 11.8854 8.7748 12.2178 8.76515C12.5501 8.75549 12.8683 8.62873 13.1162 8.40723C13.3642 8.18573 13.5258 7.88375 13.5727 7.55462C13.6196 7.22548 13.5487 6.89037 13.3725 6.60844C13.1963 6.32652 12.9262 6.11592 12.6098 6.01385C12.2934 5.91177 11.9511 5.92478 11.6433 6.05057C11.3356 6.17637 11.0822 6.40685 10.9279 6.70134C10.7736 6.99582 10.7283 7.33535 10.8 7.65998L9.29205 8.60298C9.08403 8.4374 8.83352 8.33386 8.56931 8.30426C8.30509 8.27467 8.03788 8.32022 7.79839 8.43568C7.5589 8.55114 7.35684 8.73183 7.21544 8.95698C7.07403 9.18213 6.99902 9.44261 6.99902 9.70848C6.99902 9.97435 7.07403 10.2348 7.21544 10.46C7.35684 10.6851 7.5589 10.8658 7.79839 10.9813C8.03788 11.0967 8.30509 11.1423 8.56931 11.1127C8.83352 11.0831 9.08403 10.9796 9.29205 10.814L10.8 11.757C10.7365 12.0426 10.7631 12.3409 10.8764 12.6108C10.9896 12.8806 11.1838 13.1086 11.4322 13.2633C11.6806 13.418 11.9709 13.4918 12.263 13.4745C12.5551 13.4572 12.8346 13.3496 13.063 13.1666C13.2913 12.9836 13.4572 12.7342 13.5377 12.4529C13.6183 12.1715 13.6095 11.8721 13.5126 11.596C13.4156 11.3199 13.2354 11.0807 12.9967 10.9114C12.758 10.7421 12.4727 10.6511 12.18 10.651Z" fill="#44853E"/>
</svg>
