<svg width="18" height="20" viewBox="0 0 18 20" fill="none" xmlns="http://www.w3.org/2000/svg">
<path d="M12.875 17.487L13.056 17.362C13.621 16.971 13.904 16.776 14.156 16.562C15.5264 15.4258 16.448 13.8393 16.756 12.086C16.812 11.764 16.842 11.423 16.901 10.74L16.931 10.387C17.0272 9.25952 17.0168 8.1255 16.9 6.99999L16.864 6.65099C16.763 5.67941 16.4163 4.74956 15.8564 3.94912C15.2965 3.14869 14.542 2.50404 13.664 2.07599C12.2111 1.36749 10.6159 0.999268 8.99947 0.999268C7.38304 0.999268 5.78785 1.36749 4.33497 2.07599C3.45695 2.50404 2.70243 3.14869 2.14256 3.94912C1.58269 4.74956 1.23593 5.67941 1.13497 6.65099L1.09997 6.99999C0.981844 8.12706 0.97046 9.26277 1.06597 10.392L1.09597 10.745C1.15497 11.427 1.18397 11.768 1.24097 12.091C1.54898 13.8443 2.47058 15.4308 3.84097 16.567C4.09397 16.776 4.37597 16.967 4.94097 17.367L5.12197 17.492C5.60943 17.8564 6.12316 18.1843 6.65897 18.473C7.38878 18.8226 8.18772 19.0042 8.99697 19.0042C9.80622 19.0042 10.6052 18.8226 11.335 18.473C11.872 18.1828 12.3867 17.8533 12.875 17.487Z" fill="#4C8613" fill-opacity="0.15" stroke="#4C8613" stroke-width="1.5"/>
<path d="M6.25 9.75L8.25 11.75L11.75 8" fill="#4C8613" fill-opacity="0.15"/>
<path d="M6.25 9.75L8.25 11.75L11.75 8" stroke="#4C8613" stroke-width="1.5" stroke-linecap="round" stroke-linejoin="round"/>
</svg>
