<svg width="21" height="23" viewBox="0 0 21 23" fill="none" xmlns="http://www.w3.org/2000/svg">
<path d="M2.91105 7.68505C3.19512 6.47931 3.81008 5.37679 4.68671 4.50157C5.56334 3.62634 6.66686 3.01317 7.87305 2.73105L8.36705 2.62005C10.2145 2.20331 12.1316 2.20331 13.9791 2.62005L14.4731 2.73105C15.6792 3.01317 16.7828 3.62634 17.6594 4.50157C18.536 5.37679 19.151 6.47931 19.4351 7.68505C19.9043 9.60918 19.9043 11.6179 19.4351 13.542C19.151 14.7478 18.536 15.8503 17.6594 16.7255C16.7828 17.6007 15.6792 18.2139 14.4731 18.496L13.9791 18.607C12.1316 19.0238 10.2145 19.0238 8.36705 18.607L7.87305 18.496C6.66686 18.2139 5.56334 17.6007 4.68671 16.7255C3.81008 15.8503 3.19512 14.7478 2.91105 13.542C2.44176 11.6179 2.44176 9.60918 2.91105 7.68505Z" fill="white" fill-opacity="0.15" stroke="white" stroke-width="1.5"/>
<path d="M8.019 18.5191C8.16722 18.8387 8.22366 19.1933 8.182 19.5431C8.14053 19.8919 8.00194 20.2221 7.782 20.4961C7.56555 20.7663 7.27556 20.968 6.947 21.0771C6.62097 21.185 6.27034 21.1944 5.939 21.1041C5.60542 21.0124 5.30562 20.8259 5.076 20.5671C4.84292 20.3048 4.68837 19.9821 4.63 19.6361C4.57069 19.2888 4.60912 18.9318 4.741 18.6051C4.87147 18.2814 5.09137 18.0015 5.375 17.7981M16.937 18.0071C17.2004 18.2391 17.3925 18.5412 17.491 18.8781C17.5909 19.2175 17.594 19.578 17.5 19.9191C17.4075 20.2577 17.221 20.5632 16.962 20.8001C16.7067 21.0335 16.3886 21.1872 16.047 21.2421C15.7074 21.2958 15.3596 21.2481 15.047 21.1051C14.7306 20.9596 14.4629 20.7259 14.276 20.4321C14.0862 20.1339 13.9835 19.7887 13.9796 19.4352C13.9758 19.0818 14.0708 18.7343 14.254 18.4321M3.394 14.3111H18.953H3.394ZM3.992 5.07109L3.843 4.26009C3.72003 3.54619 3.38184 2.88691 2.87372 2.37057C2.36561 1.85424 1.71184 1.50551 1 1.37109" fill="white" fill-opacity="0.15"/>
<path d="M8.019 18.5191C8.16722 18.8387 8.22366 19.1933 8.182 19.5431C8.14053 19.8919 8.00194 20.2221 7.782 20.4961C7.56555 20.7663 7.27556 20.968 6.947 21.0771C6.62097 21.185 6.27034 21.1944 5.939 21.1041C5.60542 21.0124 5.30562 20.8259 5.076 20.5671C4.84292 20.3048 4.68837 19.9821 4.63 19.6361C4.57069 19.2888 4.60912 18.9318 4.741 18.6051C4.87147 18.2814 5.09137 18.0015 5.375 17.7981M16.937 18.0071C17.2004 18.2391 17.3925 18.5412 17.491 18.8781C17.5909 19.2175 17.594 19.578 17.5 19.9191C17.4075 20.2577 17.221 20.5632 16.962 20.8001C16.7067 21.0335 16.3886 21.1872 16.047 21.2421C15.7074 21.2958 15.3596 21.2481 15.047 21.1051C14.7306 20.9596 14.4629 20.7259 14.276 20.4321C14.0862 20.1339 13.9835 19.7887 13.9796 19.4352C13.9758 19.0818 14.0708 18.7343 14.254 18.4321M3.394 14.3111H18.953M3.992 5.07109L3.843 4.26009C3.72003 3.54619 3.38184 2.88691 2.87372 2.37057C2.36561 1.85424 1.71184 1.50551 1 1.37109" stroke="white" stroke-width="1.5"/>
<path d="M13.156 5.79211L13.201 5.80011C14.1147 5.95253 14.9447 6.42404 15.5434 7.13082C16.1422 7.83759 16.4709 8.73382 16.471 9.66011" fill="white" fill-opacity="0.15"/>
<path d="M13.156 5.79211L13.201 5.80011C14.1147 5.95253 14.9447 6.42404 15.5434 7.13082C16.1422 7.83759 16.4709 8.73382 16.471 9.66011" stroke="white" stroke-width="1.5" stroke-linecap="round"/>
</svg>
