<svg width="28" height="28" viewBox="0 0 28 28" fill="none" xmlns="http://www.w3.org/2000/svg">
<g filter="url(#filter0_d_1_6625)">
<path d="M11.654 2.586C11.842 2.11764 12.1659 1.71628 12.584 1.4336C13.0021 1.15091 13.4953 0.999847 14 0.999847C14.5047 0.999847 14.9978 1.15091 15.4159 1.4336C15.834 1.71628 16.1579 2.11764 16.346 2.586L16.958 4.059C17.1305 4.4814 17.4131 4.84987 17.7762 5.12614C18.1393 5.40241 18.5698 5.57639 19.023 5.63L20.73 5.823C21.218 5.88755 21.6778 6.08853 22.0567 6.40282C22.4356 6.71712 22.718 7.13197 22.8716 7.59965C23.0251 8.06734 23.0436 8.56888 22.9248 9.04658C22.806 9.52428 22.5547 9.95874 22.2 10.3L20.751 11.7C20.4369 12.0065 20.2043 12.3865 20.0742 12.8056C19.9441 13.2246 19.9207 13.6696 20.006 14.1L20.356 15.871C20.4654 16.3635 20.4267 16.8773 20.2449 17.3478C20.0631 17.8184 19.7462 18.2246 19.3341 18.5156C18.9219 18.8065 18.433 18.9691 17.9287 18.9828C17.4245 18.9966 16.9274 18.861 16.5 18.593L15.355 17.857C14.9506 17.5957 14.4794 17.4567 13.998 17.4567C13.5165 17.4567 13.0453 17.5957 12.641 17.857L11.5 18.593C11.073 18.8601 10.5766 18.9952 10.0732 18.9813C9.56972 18.9674 9.08155 18.8053 8.66988 18.5151C8.25821 18.225 7.94135 17.8198 7.75902 17.3503C7.5767 16.8808 7.53702 16.3679 7.64497 15.876L7.99497 14.105C8.08028 13.6746 8.05683 13.2296 7.92674 12.8106C7.79665 12.3915 7.56403 12.0115 7.24997 11.705L5.79997 10.3C5.44551 9.9587 5.19455 9.52431 5.07591 9.04676C4.95728 8.5692 4.9758 8.06787 5.12933 7.60037C5.28287 7.13287 5.56519 6.71817 5.94386 6.40394C6.32253 6.08971 6.78218 5.8887 7.26997 5.824L8.97697 5.63C9.42998 5.57648 9.86041 5.40265 10.2235 5.12656C10.5867 4.85048 10.8693 4.48221 11.042 4.06L11.654 2.586Z" fill="#4C8613" fill-opacity="0.15" stroke="#4C8613" stroke-width="1.5" stroke-linecap="round" stroke-linejoin="round"/>
</g>
<defs>
<filter id="filter0_d_1_6625" x="0.248779" y="0.249847" width="27.5034" height="27.4839" filterUnits="userSpaceOnUse" color-interpolation-filters="sRGB">
<feFlood flood-opacity="0" result="BackgroundImageFix"/>
<feColorMatrix in="SourceAlpha" type="matrix" values="0 0 0 0 0 0 0 0 0 0 0 0 0 0 0 0 0 0 127 0" result="hardAlpha"/>
<feOffset dy="4"/>
<feGaussianBlur stdDeviation="2"/>
<feComposite in2="hardAlpha" operator="out"/>
<feColorMatrix type="matrix" values="0 0 0 0 0 0 0 0 0 0 0 0 0 0 0 0 0 0 0.25 0"/>
<feBlend mode="normal" in2="BackgroundImageFix" result="effect1_dropShadow_1_6625"/>
<feBlend mode="normal" in="SourceGraphic" in2="effect1_dropShadow_1_6625" result="shape"/>
</filter>
</defs>
</svg>
