<svg width="249" height="223" viewBox="0 0 249 223" fill="none" xmlns="http://www.w3.org/2000/svg">
<path d="M14.6241 83.1028C7.27615 103.392 6.84515 124.793 20.1902 143.086C39.5132 169.571 72.4131 168.841 97.9311 177.173C111.284 181.535 119.562 193.428 131.104 200.667C166.847 223.087 216.63 195.005 233.023 160.804C265.682 92.6638 195.834 8.06384 127.26 0.459843C107.01 -1.78516 86.2441 4.32584 69.2602 15.2658C45.6002 30.5058 24.2361 56.5588 14.6241 83.1028Z" fill="#4C8613"/>
<path opacity="0.7" d="M14.6241 83.1028C7.27615 103.392 6.84515 124.793 20.1902 143.086C39.5132 169.571 72.4131 168.841 97.9311 177.173C111.284 181.535 119.562 193.428 131.104 200.667C166.847 223.087 216.63 195.005 233.023 160.804C265.682 92.6638 195.834 8.06384 127.26 0.459843C107.01 -1.78516 86.2441 4.32584 69.2602 15.2658C45.6002 30.5058 24.2361 56.5588 14.6241 83.1028Z" fill="white"/>
<path d="M114.17 222.669C175.816 222.669 225.789 216.638 225.789 209.198C225.789 201.758 175.816 195.727 114.17 195.727C52.5247 195.727 2.55115 201.758 2.55115 209.198C2.55115 216.638 52.5247 222.669 114.17 222.669Z" fill="#4C8613"/>
<path opacity="0.2" d="M114.17 222.669C175.816 222.669 225.789 216.638 225.789 209.198C225.789 201.758 175.816 195.727 114.17 195.727C52.5247 195.727 2.55115 201.758 2.55115 209.198C2.55115 216.638 52.5247 222.669 114.17 222.669Z" fill="black"/>
<path d="M217.153 150.564C217.716 150.132 218.177 149.582 218.505 148.953C218.833 148.324 219.02 147.631 219.053 146.922C219.004 145.436 217.93 144.077 216.604 144.138C214.766 144.221 213.264 147.489 212.989 149.332C212.962 149.514 212.841 152.083 212.874 152.083C212.872 152.082 216.019 151.516 217.153 150.564Z" fill="#4C8613"/>
<path d="M218.384 196.819C218.713 197.033 221.355 198.75 222.719 198.931C223.366 199.082 224.041 199.059 224.677 198.866C225.312 198.673 225.885 198.316 226.339 197.831C226.734 197.251 226.903 196.546 226.815 195.85C226.726 195.154 226.387 194.514 225.86 194.051C224.286 192.736 221.211 193.875 219.94 194.976C219.863 195.047 218.994 195.999 218.559 196.495C218.806 195.995 219.076 195.495 219.359 194.976C219.75 194.228 220.19 193.452 220.613 192.698L221.313 191.548C221.544 191.168 221.813 190.827 222.056 190.448C222.436 189.908 222.849 189.386 223.256 188.836C224.406 189.918 225.716 190.814 227.141 191.494C228.363 191.868 229.974 191.961 230.926 191.037C231.396 190.524 231.656 189.853 231.656 189.158C231.656 188.462 231.396 187.792 230.926 187.279C229.526 185.722 226.288 186.305 224.874 187.131C224.83 187.158 224.549 187.373 224.219 187.631C224.637 187.125 225.05 186.619 225.495 186.124C226.717 184.704 228.032 183.34 229.346 181.953L230.155 181.078C231.341 182.187 232.686 183.114 234.144 183.828C235.366 184.208 236.978 184.301 237.924 183.372C238.401 182.862 238.666 182.191 238.666 181.493C238.666 180.795 238.401 180.123 237.924 179.614C236.524 178.057 233.286 178.64 231.871 179.471C231.816 179.499 231.486 179.757 231.112 180.049C231.812 179.279 232.512 178.503 233.17 177.705C234.327 176.329 235.383 174.871 236.328 173.342C236.528 173.524 239.046 175.757 240.421 176.181C241.648 176.561 243.26 176.654 244.207 175.73C244.678 175.216 244.939 174.545 244.939 173.848C244.939 173.152 244.678 172.48 244.207 171.967C242.807 170.41 239.569 170.999 238.154 171.824C238.054 171.884 236.854 172.824 236.437 173.172L236.476 173.117C237.402 171.54 238.184 169.883 238.812 168.166C239.395 166.603 239.891 165.009 240.297 163.391C240.697 161.878 240.968 160.458 241.21 159.204C241.331 158.516 241.436 157.889 241.524 157.304V157.343C241.546 157.376 242.801 155.368 242.861 155.224C243.62 153.617 244.209 149.882 242.9 148.231C242.722 147.966 242.482 147.747 242.202 147.594C241.921 147.44 241.608 147.356 241.288 147.349C240.969 147.341 240.652 147.41 240.365 147.55C240.078 147.691 239.828 147.897 239.637 148.154C238.812 149.205 238.837 151.054 239.142 152.506C239.702 154.16 240.471 155.735 241.431 157.193C241.331 157.804 241.211 158.448 241.068 159.163C240.81 160.406 240.501 161.814 240.078 163.3C239.968 163.7 239.835 164.12 239.709 164.533C239.792 163.774 239.885 162.733 239.885 162.624C239.885 160.724 238.905 156.924 237.134 156.071C235.874 155.432 234.653 156.28 234.383 157.721C234.265 159.28 234.739 160.825 235.709 162.051C236.821 163.291 238.11 164.36 239.533 165.226C239.247 166.126 238.933 167.047 238.554 167.977C237.902 169.653 237.099 171.266 236.154 172.796L236.06 172.736C236.208 172.059 236.5 170.618 236.5 170.491C236.671 168.615 236.038 164.758 234.338 163.696C234.071 163.523 233.765 163.42 233.448 163.394C233.131 163.369 232.812 163.422 232.521 163.55C232.229 163.677 231.974 163.874 231.777 164.125C231.581 164.375 231.449 164.67 231.394 164.983C231.143 166.523 231.472 168.101 232.318 169.412C233.355 170.799 234.577 172.037 235.95 173.093C234.997 174.539 233.945 175.917 232.803 177.219C231.967 178.177 231.086 179.101 230.195 180.019C230.31 179.546 230.695 177.654 230.695 177.519C230.866 175.643 230.233 171.786 228.533 170.719C228.265 170.55 227.959 170.449 227.642 170.426C227.326 170.403 227.009 170.457 226.718 170.585C226.428 170.712 226.173 170.909 225.976 171.158C225.779 171.407 225.646 171.7 225.589 172.012C225.342 173.542 225.669 175.109 226.508 176.412C227.537 177.788 228.75 179.018 230.112 180.066L228.896 181.309C227.554 182.64 226.211 184.009 224.919 185.391C224.474 185.87 224.05 186.36 223.626 186.849C223.774 186.134 224.044 184.819 224.044 184.703C224.22 182.827 223.582 178.97 221.881 177.903C221.613 177.733 221.307 177.632 220.99 177.609C220.674 177.585 220.356 177.64 220.066 177.767C219.775 177.895 219.52 178.092 219.323 178.341C219.127 178.59 218.994 178.884 218.937 179.196C218.684 180.727 219.014 182.297 219.862 183.596C220.85 184.935 222.018 186.131 223.334 187.15C222.634 187.975 221.953 188.811 221.32 189.675C221.078 190.055 220.759 190.423 220.528 190.802L219.801 191.936C219.328 192.728 218.888 193.465 218.47 194.219C218.256 194.582 218.063 194.946 217.859 195.319C218.112 194.632 218.519 193.531 218.519 193.427C218.937 191.633 218.811 187.765 217.243 186.433C217.011 186.216 216.729 186.061 216.422 185.979C216.115 185.898 215.792 185.894 215.483 185.967C215.174 186.04 214.888 186.188 214.65 186.398C214.412 186.608 214.229 186.873 214.118 187.171C214.044 187.332 213.985 187.499 213.942 187.671C212.832 188.724 212.022 190.053 211.593 191.522C211.565 191.637 211.345 193.04 211.252 193.767C211.213 193.151 211.169 192.54 211.136 191.901C211.087 190.982 211.053 190.009 211.021 189.068C211.021 188.578 211.032 188.1 211.021 187.593C211.01 187.086 211.065 186.613 211.065 186.119C211.098 185.398 211.165 184.655 211.23 183.919C212.656 184.142 214.111 184.099 215.521 183.792C216.174 183.575 216.764 183.204 217.243 182.711C217.722 182.218 218.075 181.616 218.272 180.958C218.434 180.276 218.342 179.558 218.013 178.939C217.684 178.321 217.14 177.843 216.484 177.597C214.641 177.113 212.401 179.709 211.697 181.36C211.675 181.409 211.559 181.784 211.427 182.224C211.51 181.503 211.592 180.783 211.697 180.062C211.997 178.009 212.352 175.941 212.704 173.862C212.781 173.427 212.847 172.993 212.919 172.562C214.381 172.78 215.87 172.741 217.319 172.447C217.972 172.234 218.564 171.865 219.044 171.372C219.523 170.88 219.875 170.278 220.07 169.619C220.234 168.937 220.142 168.218 219.813 167.599C219.484 166.98 218.939 166.502 218.282 166.257C216.439 165.773 214.199 168.365 213.501 170.015C213.473 170.076 213.336 170.515 213.187 171.015C213.363 169.882 213.528 168.749 213.66 167.615C213.9 165.652 214.021 163.677 214.023 161.7C214.265 161.733 217.297 162.113 218.567 161.606C219.218 161.389 219.807 161.019 220.285 160.527C220.762 160.035 221.115 159.435 221.312 158.778C221.476 158.096 221.384 157.377 221.055 156.758C220.725 156.139 220.181 155.662 219.524 155.416C217.681 154.932 215.441 157.529 214.743 159.179C214.694 159.279 214.209 160.896 214.056 161.479V161.407C214.023 159.431 213.839 157.461 213.506 155.514C213.215 153.762 212.835 152.027 212.367 150.314C211.954 148.714 211.487 147.271 211.067 146C210.836 145.313 210.61 144.685 210.401 144.1H210.44V141.349C210.28 139.435 208.959 135.737 207.14 135.099C205.831 134.637 204.703 135.633 204.571 137.118C204.592 138.679 205.199 140.176 206.271 141.311C207.476 142.411 208.838 143.324 210.312 144.022C210.521 144.622 210.741 145.282 210.972 146.008C211.363 147.285 211.803 148.732 212.188 150.327C212.288 150.756 212.388 151.218 212.488 151.658C212.188 150.958 211.756 149.941 211.706 149.858C210.806 148.164 208.19 145.418 206.406 145.792C205.119 146.061 204.574 147.602 205.058 149.06C205.346 149.744 205.77 150.363 206.305 150.879C206.839 151.395 207.473 151.796 208.167 152.06C209.632 152.448 211.153 152.577 212.662 152.44C212.862 153.424 213.062 154.448 213.212 155.515C213.508 157.447 213.657 159.398 213.657 161.353H213.557C213.348 160.653 212.875 159.19 212.825 159.075C212.049 157.293 209.705 154.261 207.873 154.404C206.573 154.504 205.873 155.95 206.222 157.441C206.691 158.887 207.711 160.091 209.061 160.791C210.524 161.364 212.074 161.686 213.644 161.743C213.601 163.647 213.446 165.546 213.182 167.432C212.995 168.824 212.753 170.21 212.5 171.603C212.362 171.103 211.741 169.187 211.686 169.05C210.91 167.267 208.566 164.241 206.734 164.379C205.434 164.479 204.734 165.919 205.083 167.416C205.552 168.864 206.572 170.07 207.922 170.772C209.377 171.347 210.92 171.667 212.483 171.718C212.368 172.351 212.252 172.984 212.131 173.611C211.74 175.674 211.339 177.737 210.997 179.795C210.882 180.505 210.788 181.215 210.697 181.93C210.471 181.176 210.037 179.839 209.997 179.73C209.221 177.948 206.877 174.916 205.045 175.059C203.745 175.159 203.045 176.605 203.394 178.096C203.867 179.54 204.886 180.742 206.233 181.446C207.635 182.008 209.124 182.325 210.633 182.382C210.485 183.57 210.353 184.748 210.276 185.926C210.254 186.437 210.204 186.949 210.204 187.445V188.914C210.221 189.927 210.232 190.862 210.265 191.803C210.281 192.282 210.325 192.733 210.325 193.195C210.193 192.419 209.962 191.195 209.925 191.083C209.391 189.213 207.438 185.856 205.578 185.669C204.241 185.537 203.35 186.808 203.504 188.327C203.802 189.841 204.663 191.185 205.913 192.09C207.29 192.897 208.787 193.478 210.348 193.812C210.398 194.945 210.463 196.046 210.535 197.08C210.735 200.018 211.002 202.554 211.223 204.419H212.455C212.18 202.593 211.894 200.062 211.629 197.091C211.547 196.162 211.47 195.171 211.398 194.153C212.851 194.112 214.288 193.833 215.651 193.327C216.293 194.177 216.981 194.991 217.712 195.766C217.217 196.685 216.744 197.577 216.312 198.429C215.118 200.784 214.161 202.847 213.467 204.421H214.892C215.514 202.958 216.312 201.159 217.28 199.145C217.669 198.381 218.06 197.539 218.384 196.819Z" fill="#4C8613"/>
<path d="M247.925 164.919C248.259 164.301 248.359 163.584 248.206 162.898C248.053 162.213 247.658 161.606 247.094 161.188C245.416 160.077 242.511 161.65 241.378 162.905C241.278 163.015 239.958 164.946 239.964 164.952C239.97 164.958 243.051 166.536 244.498 166.536C245.161 166.586 245.825 166.464 246.425 166.18C247.026 165.897 247.543 165.462 247.925 164.919Z" fill="#4C8613"/>
<path opacity="0.2" d="M217.153 150.564C217.716 150.132 218.177 149.582 218.505 148.953C218.833 148.324 219.02 147.631 219.053 146.922C219.004 145.436 217.93 144.077 216.604 144.138C214.766 144.221 213.264 147.489 212.989 149.332C212.962 149.514 212.841 152.083 212.874 152.083C212.872 152.082 216.019 151.516 217.153 150.564Z" fill="black"/>
<path opacity="0.2" d="M218.384 196.819C218.713 197.033 221.355 198.75 222.719 198.931C223.366 199.082 224.041 199.059 224.677 198.866C225.312 198.673 225.885 198.316 226.339 197.831C226.734 197.251 226.903 196.546 226.815 195.85C226.726 195.154 226.387 194.514 225.86 194.051C224.286 192.736 221.211 193.875 219.94 194.976C219.863 195.047 218.994 195.999 218.559 196.495C218.806 195.995 219.076 195.495 219.359 194.976C219.75 194.228 220.19 193.452 220.613 192.698L221.313 191.548C221.544 191.168 221.813 190.827 222.056 190.448C222.436 189.908 222.849 189.386 223.256 188.836C224.406 189.918 225.716 190.814 227.141 191.494C228.363 191.868 229.974 191.961 230.926 191.037C231.396 190.524 231.656 189.853 231.656 189.158C231.656 188.462 231.396 187.792 230.926 187.279C229.526 185.722 226.288 186.305 224.874 187.131C224.83 187.158 224.549 187.373 224.219 187.631C224.637 187.125 225.05 186.619 225.495 186.124C226.717 184.704 228.032 183.34 229.346 181.953L230.155 181.078C231.341 182.187 232.686 183.114 234.144 183.828C235.366 184.208 236.978 184.301 237.924 183.372C238.401 182.862 238.666 182.191 238.666 181.493C238.666 180.795 238.401 180.123 237.924 179.614C236.524 178.057 233.286 178.64 231.871 179.471C231.816 179.499 231.486 179.757 231.112 180.049C231.812 179.279 232.512 178.503 233.17 177.705C234.327 176.329 235.383 174.871 236.328 173.342C236.528 173.524 239.046 175.757 240.421 176.181C241.648 176.561 243.26 176.654 244.207 175.73C244.678 175.216 244.939 174.545 244.939 173.848C244.939 173.152 244.678 172.48 244.207 171.967C242.807 170.41 239.569 170.999 238.154 171.824C238.054 171.884 236.854 172.824 236.437 173.172L236.476 173.117C237.402 171.54 238.184 169.883 238.812 168.166C239.395 166.603 239.891 165.009 240.297 163.391C240.697 161.878 240.968 160.458 241.21 159.204C241.331 158.516 241.436 157.889 241.524 157.304V157.343C241.546 157.376 242.801 155.368 242.861 155.224C243.62 153.617 244.209 149.882 242.9 148.231C242.722 147.966 242.482 147.747 242.202 147.594C241.921 147.44 241.608 147.356 241.288 147.349C240.969 147.341 240.652 147.41 240.365 147.55C240.078 147.691 239.828 147.897 239.637 148.154C238.812 149.205 238.837 151.054 239.142 152.506C239.702 154.16 240.471 155.735 241.431 157.193C241.331 157.804 241.211 158.448 241.068 159.163C240.81 160.406 240.501 161.814 240.078 163.3C239.968 163.7 239.835 164.12 239.709 164.533C239.792 163.774 239.885 162.733 239.885 162.624C239.885 160.724 238.905 156.924 237.134 156.071C235.874 155.432 234.653 156.28 234.383 157.721C234.265 159.28 234.739 160.825 235.709 162.051C236.821 163.291 238.11 164.36 239.533 165.226C239.247 166.126 238.933 167.047 238.554 167.977C237.902 169.653 237.099 171.266 236.154 172.796L236.06 172.736C236.208 172.059 236.5 170.618 236.5 170.491C236.671 168.615 236.038 164.758 234.338 163.696C234.071 163.523 233.765 163.42 233.448 163.394C233.131 163.369 232.812 163.422 232.521 163.55C232.229 163.677 231.974 163.874 231.777 164.125C231.581 164.375 231.449 164.67 231.394 164.983C231.143 166.523 231.472 168.101 232.318 169.412C233.355 170.799 234.577 172.037 235.95 173.093C234.997 174.539 233.945 175.917 232.803 177.219C231.967 178.177 231.086 179.101 230.195 180.019C230.31 179.546 230.695 177.654 230.695 177.519C230.866 175.643 230.233 171.786 228.533 170.719C228.265 170.55 227.959 170.449 227.642 170.426C227.326 170.403 227.009 170.457 226.718 170.585C226.428 170.712 226.173 170.909 225.976 171.158C225.779 171.407 225.646 171.7 225.589 172.012C225.342 173.542 225.669 175.109 226.508 176.412C227.537 177.788 228.75 179.018 230.112 180.066L228.896 181.309C227.554 182.64 226.211 184.009 224.919 185.391C224.474 185.87 224.05 186.36 223.626 186.849C223.774 186.134 224.044 184.819 224.044 184.703C224.22 182.827 223.582 178.97 221.881 177.903C221.613 177.733 221.307 177.632 220.99 177.609C220.674 177.585 220.356 177.64 220.066 177.767C219.775 177.895 219.52 178.092 219.323 178.341C219.127 178.59 218.994 178.884 218.937 179.196C218.684 180.727 219.014 182.297 219.862 183.596C220.85 184.935 222.018 186.131 223.334 187.15C222.634 187.975 221.953 188.811 221.32 189.675C221.078 190.055 220.759 190.423 220.528 190.802L219.801 191.936C219.328 192.728 218.888 193.465 218.47 194.219C218.256 194.582 218.063 194.946 217.859 195.319C218.112 194.632 218.519 193.531 218.519 193.427C218.937 191.633 218.811 187.765 217.243 186.433C217.011 186.216 216.729 186.061 216.422 185.979C216.115 185.898 215.792 185.894 215.483 185.967C215.174 186.04 214.888 186.188 214.65 186.398C214.412 186.608 214.229 186.873 214.118 187.171C214.044 187.332 213.985 187.499 213.942 187.671C212.832 188.724 212.022 190.053 211.593 191.522C211.565 191.637 211.345 193.04 211.252 193.767C211.213 193.151 211.169 192.54 211.136 191.901C211.087 190.982 211.053 190.009 211.021 189.068C211.021 188.578 211.032 188.1 211.021 187.593C211.01 187.086 211.065 186.613 211.065 186.119C211.098 185.398 211.165 184.655 211.23 183.919C212.656 184.142 214.111 184.099 215.521 183.792C216.174 183.575 216.764 183.204 217.243 182.711C217.722 182.218 218.075 181.616 218.272 180.958C218.434 180.276 218.342 179.558 218.013 178.939C217.684 178.321 217.14 177.843 216.484 177.597C214.641 177.113 212.401 179.709 211.697 181.36C211.675 181.409 211.559 181.784 211.427 182.224C211.51 181.503 211.592 180.783 211.697 180.062C211.997 178.009 212.352 175.941 212.704 173.862C212.781 173.427 212.847 172.993 212.919 172.562C214.381 172.78 215.87 172.741 217.319 172.447C217.972 172.234 218.564 171.865 219.044 171.372C219.523 170.88 219.875 170.278 220.07 169.619C220.234 168.937 220.142 168.218 219.813 167.599C219.484 166.98 218.939 166.502 218.282 166.257C216.439 165.773 214.199 168.365 213.501 170.015C213.473 170.076 213.336 170.515 213.187 171.015C213.363 169.882 213.528 168.749 213.66 167.615C213.9 165.652 214.021 163.677 214.023 161.7C214.265 161.733 217.297 162.113 218.567 161.606C219.218 161.389 219.807 161.019 220.285 160.527C220.762 160.035 221.115 159.435 221.312 158.778C221.476 158.096 221.384 157.377 221.055 156.758C220.725 156.139 220.181 155.662 219.524 155.416C217.681 154.932 215.441 157.529 214.743 159.179C214.694 159.279 214.209 160.896 214.056 161.479V161.407C214.023 159.431 213.839 157.461 213.506 155.514C213.215 153.762 212.835 152.027 212.367 150.314C211.954 148.714 211.487 147.271 211.067 146C210.836 145.313 210.61 144.685 210.401 144.1H210.44V141.349C210.28 139.435 208.959 135.737 207.14 135.099C205.831 134.637 204.703 135.633 204.571 137.118C204.592 138.679 205.199 140.176 206.271 141.311C207.476 142.411 208.838 143.324 210.312 144.022C210.521 144.622 210.741 145.282 210.972 146.008C211.363 147.285 211.803 148.732 212.188 150.327C212.288 150.756 212.388 151.218 212.488 151.658C212.188 150.958 211.756 149.941 211.706 149.858C210.806 148.164 208.19 145.418 206.406 145.792C205.119 146.061 204.574 147.602 205.058 149.06C205.346 149.744 205.77 150.363 206.305 150.879C206.839 151.395 207.473 151.796 208.167 152.06C209.632 152.448 211.153 152.577 212.662 152.44C212.862 153.424 213.062 154.448 213.212 155.515C213.508 157.447 213.657 159.398 213.657 161.353H213.557C213.348 160.653 212.875 159.19 212.825 159.075C212.049 157.293 209.705 154.261 207.873 154.404C206.573 154.504 205.873 155.95 206.222 157.441C206.691 158.887 207.711 160.091 209.061 160.791C210.524 161.364 212.074 161.686 213.644 161.743C213.601 163.647 213.446 165.546 213.182 167.432C212.995 168.824 212.753 170.21 212.5 171.603C212.362 171.103 211.741 169.187 211.686 169.05C210.91 167.267 208.566 164.241 206.734 164.379C205.434 164.479 204.734 165.919 205.083 167.416C205.552 168.864 206.572 170.07 207.922 170.772C209.377 171.347 210.92 171.667 212.483 171.718C212.368 172.351 212.252 172.984 212.131 173.611C211.74 175.674 211.339 177.737 210.997 179.795C210.882 180.505 210.788 181.215 210.697 181.93C210.471 181.176 210.037 179.839 209.997 179.73C209.221 177.948 206.877 174.916 205.045 175.059C203.745 175.159 203.045 176.605 203.394 178.096C203.867 179.54 204.886 180.742 206.233 181.446C207.635 182.008 209.124 182.325 210.633 182.382C210.485 183.57 210.353 184.748 210.276 185.926C210.254 186.437 210.204 186.949 210.204 187.445V188.914C210.221 189.927 210.232 190.862 210.265 191.803C210.281 192.282 210.325 192.733 210.325 193.195C210.193 192.419 209.962 191.195 209.925 191.083C209.391 189.213 207.438 185.856 205.578 185.669C204.241 185.537 203.35 186.808 203.504 188.327C203.802 189.841 204.663 191.185 205.913 192.09C207.29 192.897 208.787 193.478 210.348 193.812C210.398 194.945 210.463 196.046 210.535 197.08C210.735 200.018 211.002 202.554 211.223 204.419H212.455C212.18 202.593 211.894 200.062 211.629 197.091C211.547 196.162 211.47 195.171 211.398 194.153C212.851 194.112 214.288 193.833 215.651 193.327C216.293 194.177 216.981 194.991 217.712 195.766C217.217 196.685 216.744 197.577 216.312 198.429C215.118 200.784 214.161 202.847 213.467 204.421H214.892C215.514 202.958 216.312 201.159 217.28 199.145C217.669 198.381 218.06 197.539 218.384 196.819Z" fill="black"/>
<path opacity="0.2" d="M247.925 164.919C248.259 164.301 248.359 163.584 248.206 162.898C248.053 162.213 247.658 161.606 247.094 161.188C245.416 160.077 242.511 161.65 241.378 162.905C241.278 163.015 239.958 164.946 239.964 164.952C239.97 164.958 243.051 166.536 244.498 166.536C245.161 166.586 245.825 166.464 246.425 166.18C247.026 165.897 247.543 165.462 247.925 164.919Z" fill="black"/>
<path d="M31.8481 153.619C31.2855 153.187 30.824 152.637 30.4959 152.008C30.1677 151.379 29.9808 150.686 29.9481 149.977C29.9971 148.491 31.0711 147.132 32.3971 147.193C34.2341 147.276 35.7371 150.544 36.0121 152.387C36.0391 152.569 36.1601 155.138 36.1271 155.138C36.1291 155.137 32.9821 154.571 31.8481 153.619Z" fill="#4C8613"/>
<path d="M30.615 199.874C30.285 200.088 27.644 201.805 26.28 201.986C25.6332 202.137 24.9581 202.114 24.3226 201.921C23.6871 201.728 23.1137 201.371 22.6601 200.886C22.2654 200.306 22.0962 199.601 22.1845 198.905C22.2727 198.209 22.6121 197.569 23.139 197.106C24.712 195.791 27.788 196.93 29.059 198.03C29.136 198.102 30.0051 199.054 30.4401 199.549C30.1931 199.049 29.923 198.549 29.64 198.03C29.249 197.282 28.8091 196.506 28.3851 195.752L27.685 194.602C27.454 194.222 27.1851 193.881 26.9421 193.502C26.5621 192.962 26.1501 192.44 25.7421 191.89C24.5924 192.972 23.2818 193.868 21.8571 194.548C20.6351 194.922 19.023 195.016 18.071 194.091C17.6019 193.578 17.3417 192.907 17.3417 192.212C17.3417 191.516 17.6019 190.846 18.071 190.333C19.471 188.776 22.709 189.359 24.1241 190.185C24.167 190.213 24.448 190.427 24.778 190.685C24.3601 190.179 23.947 189.672 23.501 189.177C22.28 187.757 20.9651 186.393 19.6501 185.006L18.8411 184.131C17.6547 185.24 16.3104 186.167 14.852 186.882C13.63 187.262 12.0181 187.355 11.0721 186.425C10.5955 185.915 10.3304 185.244 10.3304 184.546C10.3304 183.848 10.5955 183.177 11.0721 182.667C12.4721 181.11 15.7101 181.693 17.1241 182.524C17.18 182.552 17.5091 182.81 17.8831 183.102C17.1831 182.332 16.4831 181.556 15.8251 180.758C14.6677 179.382 13.6123 177.924 12.667 176.395C12.467 176.577 9.94905 178.81 8.57405 179.234C7.34705 179.614 5.73505 179.707 4.78805 178.783C4.31723 178.269 4.05603 177.598 4.05603 176.901C4.05603 176.205 4.31723 175.533 4.78805 175.02C6.18805 173.463 9.42605 174.052 10.84 174.877C10.94 174.938 12.14 175.877 12.557 176.225L12.519 176.169C11.5972 174.592 10.8201 172.934 10.1971 171.217C9.61377 169.654 9.118 168.06 8.71205 166.442C8.31205 164.929 8.04005 163.509 7.79805 162.255C7.67705 161.567 7.57305 160.94 7.48505 160.355V160.394C7.46305 160.427 6.20805 158.419 6.14805 158.275C5.38905 156.668 4.80005 152.933 6.10905 151.282C6.28767 151.017 6.52715 150.799 6.80746 150.645C7.08776 150.492 7.40073 150.408 7.72015 150.4C8.03958 150.393 8.35616 150.462 8.64339 150.602C8.93062 150.742 9.18014 150.949 9.37105 151.205C10.1971 152.256 10.1711 154.105 9.87105 155.557C9.3113 157.211 8.54204 158.786 7.58205 160.245C7.68205 160.855 7.80205 161.499 7.94505 162.214C8.20405 163.457 8.51205 164.866 8.93505 166.351C9.04505 166.751 9.17705 167.171 9.30405 167.584C9.22105 166.825 9.12805 165.784 9.12805 165.675C9.12805 163.775 10.108 159.975 11.879 159.122C13.139 158.484 14.36 159.331 14.63 160.773C14.7479 162.332 14.2745 163.877 13.3041 165.103C12.1916 166.342 10.9032 167.412 9.48005 168.277C9.76605 169.177 10.08 170.099 10.459 171.028C11.1111 172.704 11.9144 174.317 12.8591 175.848L12.9531 175.787C12.8051 175.11 12.5121 173.669 12.5121 173.542C12.3421 171.666 12.9741 167.809 14.6751 166.747C14.9424 166.574 15.2482 166.471 15.5653 166.445C15.8824 166.42 16.2009 166.473 16.4923 166.601C16.7838 166.728 17.0392 166.926 17.2358 167.176C17.4324 167.426 17.5641 167.721 17.6191 168.034C17.8675 169.573 17.5362 171.151 16.6891 172.46C15.6518 173.846 14.4302 175.085 13.058 176.141C14.0116 177.587 15.0631 178.966 16.2051 180.268C17.0421 181.225 17.9221 182.149 18.8131 183.068C18.6981 182.595 18.3131 180.702 18.3131 180.568C18.1421 178.692 18.775 174.835 20.475 173.768C20.7436 173.599 21.0494 173.498 21.3658 173.475C21.6822 173.452 21.9995 173.506 22.2899 173.634C22.5804 173.761 22.8352 173.958 23.032 174.207C23.2288 174.456 23.3617 174.749 23.419 175.061C23.6658 176.591 23.3385 178.158 22.5 179.461C21.4697 180.841 20.2554 182.074 18.891 183.125L20.1071 184.368C21.4501 185.699 22.792 187.068 24.085 188.451C24.53 188.93 24.954 189.419 25.378 189.909C25.23 189.194 24.96 187.879 24.96 187.763C24.784 185.887 25.4221 182.03 27.1231 180.963C27.3915 180.793 27.6974 180.693 28.0139 180.669C28.3304 180.645 28.6479 180.7 28.9386 180.827C29.2292 180.955 29.484 181.152 29.6808 181.401C29.8775 181.65 30.0102 181.944 30.0671 182.256C30.3201 183.787 29.9901 185.357 29.142 186.656C28.1546 187.995 26.9861 189.191 25.67 190.21C26.37 191.035 27.051 191.872 27.684 192.735C27.926 193.115 28.245 193.483 28.476 193.863L29.2021 194.996C29.6751 195.789 30.116 196.526 30.533 197.279C30.748 197.642 30.94 198.006 31.144 198.379C30.891 197.691 30.4841 196.591 30.4841 196.486C30.0661 194.692 30.1921 190.825 31.7611 189.493C31.9934 189.276 32.2755 189.121 32.5823 189.039C32.8892 188.958 33.2115 188.954 33.5205 189.026C33.8295 189.099 34.1158 189.247 34.354 189.457C34.5922 189.667 34.7749 189.932 34.8861 190.23C34.9602 190.391 35.0191 190.558 35.0621 190.73C36.1716 191.783 36.9821 193.112 37.4111 194.581C37.4391 194.696 37.658 196.1 37.752 196.826C37.791 196.21 37.8351 195.599 37.8681 194.961C37.9181 194.042 37.9501 193.068 37.9831 192.127C37.9831 191.637 37.972 191.159 37.9831 190.652C37.9941 190.145 37.9391 189.672 37.9391 189.178C37.9061 188.457 37.8391 187.714 37.7741 186.978C36.3474 187.205 34.8911 187.165 33.4791 186.86C32.8268 186.643 32.2363 186.272 31.7577 185.779C31.279 185.286 30.9262 184.684 30.7291 184.026C30.5667 183.344 30.6587 182.626 30.9879 182.008C31.3171 181.389 31.8609 180.911 32.517 180.665C34.36 180.181 36.6001 182.777 37.3041 184.428C37.326 184.477 37.442 184.852 37.573 185.292C37.491 184.571 37.4081 183.851 37.3041 183.13C37.0041 181.077 36.649 179.009 36.297 176.93C36.22 176.495 36.154 176.061 36.0821 175.63C34.6199 175.848 33.1308 175.809 31.682 175.515C31.0286 175.302 30.4367 174.933 29.9575 174.44C29.4782 173.948 29.126 173.346 28.931 172.687C28.7673 172.005 28.8587 171.286 29.1881 170.667C29.5174 170.048 30.062 169.57 30.7191 169.325C32.5621 168.841 34.802 171.433 35.5 173.083C35.5271 173.143 35.6651 173.583 35.8131 174.083C35.6371 172.95 35.4721 171.817 35.3401 170.683C35.1 168.718 34.9794 166.74 34.9791 164.76C34.7371 164.793 31.705 165.172 30.434 164.666C29.7819 164.449 29.1915 164.078 28.7129 163.585C28.2342 163.092 27.8813 162.49 27.684 161.832C27.5203 161.15 27.6117 160.431 27.9411 159.812C28.2704 159.193 28.815 158.715 29.472 158.47C31.3151 157.986 33.555 160.583 34.253 162.233C34.302 162.333 34.7871 163.95 34.9401 164.533V164.46C34.9729 162.484 35.1567 160.514 35.49 158.567C35.7807 156.815 36.1609 155.08 36.629 153.367C37.041 151.767 37.5091 150.324 37.9291 149.053C38.16 148.366 38.3851 147.738 38.5951 147.153H38.556V144.403C38.715 142.488 40.0361 138.791 41.8561 138.153C43.1661 137.691 44.2941 138.686 44.4251 140.172C44.4036 141.733 43.7969 143.229 42.725 144.364C41.5229 145.463 40.1637 146.377 38.6921 147.076C38.4831 147.681 38.263 148.336 38.032 149.062C37.641 150.339 37.201 151.786 36.8161 153.381C36.7161 153.81 36.616 154.272 36.516 154.712C36.816 154.012 37.2481 152.995 37.2981 152.912C38.1981 151.218 40.813 148.472 42.598 148.846C43.885 149.116 44.43 150.656 43.946 152.114C43.6582 152.798 43.2343 153.417 42.7 153.933C42.1657 154.449 41.5323 154.85 40.838 155.114C39.3718 155.503 37.8487 155.631 36.338 155.494C36.138 156.478 35.9381 157.502 35.7881 158.569C35.4911 160.501 35.342 162.452 35.3421 164.407H35.447C35.656 163.707 36.1291 162.245 36.1791 162.129C36.9551 160.347 39.2991 157.315 41.1311 157.458C42.4311 157.558 43.131 159.004 42.782 160.495C42.3127 161.941 41.2928 163.145 39.9431 163.845C38.4798 164.418 36.9304 164.74 35.3601 164.797C35.4032 166.701 35.5574 168.6 35.822 170.486C36.008 171.878 36.251 173.264 36.504 174.657C36.642 174.157 37.2631 172.241 37.3181 172.104C38.0941 170.321 40.4381 167.295 42.2701 167.433C43.5701 167.533 44.27 168.973 43.921 170.47C43.4517 171.918 42.4321 173.123 41.0821 173.826C39.6273 174.401 38.0844 174.721 36.5211 174.772C36.6371 175.405 36.7521 176.038 36.8731 176.665C37.264 178.728 37.6651 180.792 38.0061 182.849C38.1221 183.559 38.215 184.269 38.306 184.984C38.5321 184.23 38.9661 182.893 39.0061 182.784C39.7821 181.001 42.125 177.969 43.958 178.112C45.258 178.212 45.958 179.658 45.6081 181.149C45.1357 182.594 44.1167 183.797 42.769 184.5C41.3668 185.061 39.8784 185.378 38.3691 185.435C38.5171 186.623 38.65 187.801 38.727 188.979C38.749 189.491 38.7981 190.002 38.7981 190.498V191.967C38.7821 192.979 38.771 193.915 38.738 194.855C38.722 195.334 38.6781 195.785 38.6781 196.247C38.8101 195.471 39.0411 194.247 39.0781 194.134C39.6121 192.264 41.5651 188.907 43.4241 188.72C44.7621 188.588 45.6521 189.859 45.4981 191.378C45.1996 192.892 44.3384 194.237 43.088 195.141C41.7114 195.948 40.2145 196.53 38.654 196.864C38.605 197.997 38.5391 199.098 38.4671 200.132C38.2671 203.07 37.9991 205.606 37.78 207.472H36.546C36.821 205.645 37.1071 203.114 37.3711 200.144C37.4541 199.214 37.531 198.223 37.602 197.206C36.1487 197.166 34.7119 196.886 33.349 196.38C32.7082 197.23 32.0212 198.044 31.291 198.818C31.791 199.737 32.2601 200.628 32.6911 201.481C33.8851 203.836 34.8421 205.899 35.5361 207.473H34.1091C33.4871 206.009 32.6891 204.21 31.7211 202.197C31.33 201.436 30.939 200.594 30.615 199.874Z" fill="#4C8613"/>
<path d="M1.0681 167.974C0.734436 167.356 0.634783 166.639 0.787437 165.954C0.940091 165.269 1.3348 164.661 1.8991 164.244C3.5781 163.132 6.4821 164.706 7.6161 165.96C7.7161 166.07 9.0361 168.001 9.0301 168.007C9.0241 168.013 5.9431 169.591 4.4971 169.591C3.8344 169.642 3.16985 169.52 2.56869 169.236C1.96752 168.953 1.45041 168.518 1.0681 167.974Z" fill="#4C8613"/>
<path opacity="0.2" d="M31.8481 153.619C31.2855 153.187 30.824 152.637 30.4959 152.008C30.1677 151.379 29.9808 150.686 29.9481 149.977C29.9971 148.491 31.0711 147.132 32.3971 147.193C34.2341 147.276 35.7371 150.544 36.0121 152.387C36.0391 152.569 36.1601 155.138 36.1271 155.138C36.1291 155.137 32.9821 154.571 31.8481 153.619Z" fill="black"/>
<path opacity="0.2" d="M30.615 199.874C30.285 200.088 27.644 201.805 26.28 201.986C25.6332 202.137 24.9581 202.114 24.3226 201.921C23.6871 201.728 23.1137 201.371 22.6601 200.886C22.2654 200.306 22.0962 199.601 22.1845 198.905C22.2727 198.209 22.6121 197.569 23.139 197.106C24.712 195.791 27.788 196.93 29.059 198.03C29.136 198.102 30.0051 199.054 30.4401 199.549C30.1931 199.049 29.923 198.549 29.64 198.03C29.249 197.282 28.8091 196.506 28.3851 195.752L27.685 194.602C27.454 194.222 27.1851 193.881 26.9421 193.502C26.5621 192.962 26.1501 192.44 25.7421 191.89C24.5924 192.972 23.2818 193.868 21.8571 194.548C20.6351 194.922 19.023 195.016 18.071 194.091C17.6019 193.578 17.3417 192.907 17.3417 192.212C17.3417 191.516 17.6019 190.846 18.071 190.333C19.471 188.776 22.709 189.359 24.1241 190.185C24.167 190.213 24.448 190.427 24.778 190.685C24.3601 190.179 23.947 189.672 23.501 189.177C22.28 187.757 20.9651 186.393 19.6501 185.006L18.8411 184.131C17.6547 185.24 16.3104 186.167 14.852 186.882C13.63 187.262 12.0181 187.355 11.0721 186.425C10.5955 185.915 10.3304 185.244 10.3304 184.546C10.3304 183.848 10.5955 183.177 11.0721 182.667C12.4721 181.11 15.7101 181.693 17.1241 182.524C17.18 182.552 17.5091 182.81 17.8831 183.102C17.1831 182.332 16.4831 181.556 15.8251 180.758C14.6677 179.382 13.6123 177.924 12.667 176.395C12.467 176.577 9.94905 178.81 8.57405 179.234C7.34705 179.614 5.73505 179.707 4.78805 178.783C4.31723 178.269 4.05603 177.598 4.05603 176.901C4.05603 176.205 4.31723 175.533 4.78805 175.02C6.18805 173.463 9.42605 174.052 10.84 174.877C10.94 174.938 12.14 175.877 12.557 176.225L12.519 176.169C11.5972 174.592 10.8201 172.934 10.1971 171.217C9.61377 169.654 9.118 168.06 8.71205 166.442C8.31205 164.929 8.04005 163.509 7.79805 162.255C7.67705 161.567 7.57305 160.94 7.48505 160.355V160.394C7.46305 160.427 6.20805 158.419 6.14805 158.275C5.38905 156.668 4.80005 152.933 6.10905 151.282C6.28767 151.017 6.52715 150.799 6.80746 150.645C7.08776 150.492 7.40073 150.408 7.72015 150.4C8.03958 150.393 8.35616 150.462 8.64339 150.602C8.93062 150.742 9.18014 150.949 9.37105 151.205C10.1971 152.256 10.1711 154.105 9.87105 155.557C9.3113 157.211 8.54204 158.786 7.58205 160.245C7.68205 160.855 7.80205 161.499 7.94505 162.214C8.20405 163.457 8.51205 164.866 8.93505 166.351C9.04505 166.751 9.17705 167.171 9.30405 167.584C9.22105 166.825 9.12805 165.784 9.12805 165.675C9.12805 163.775 10.108 159.975 11.879 159.122C13.139 158.484 14.36 159.331 14.63 160.773C14.7479 162.332 14.2745 163.877 13.3041 165.103C12.1916 166.342 10.9032 167.412 9.48005 168.277C9.76605 169.177 10.08 170.099 10.459 171.028C11.1111 172.704 11.9144 174.317 12.8591 175.848L12.9531 175.787C12.8051 175.11 12.5121 173.669 12.5121 173.542C12.3421 171.666 12.9741 167.809 14.6751 166.747C14.9424 166.574 15.2482 166.471 15.5653 166.445C15.8824 166.42 16.2009 166.473 16.4923 166.601C16.7838 166.728 17.0392 166.926 17.2358 167.176C17.4324 167.426 17.5641 167.721 17.6191 168.034C17.8675 169.573 17.5362 171.151 16.6891 172.46C15.6518 173.846 14.4302 175.085 13.058 176.141C14.0116 177.587 15.0631 178.966 16.2051 180.268C17.0421 181.225 17.9221 182.149 18.8131 183.068C18.6981 182.595 18.3131 180.702 18.3131 180.568C18.1421 178.692 18.775 174.835 20.475 173.768C20.7436 173.599 21.0494 173.498 21.3658 173.475C21.6822 173.452 21.9995 173.506 22.2899 173.634C22.5804 173.761 22.8352 173.958 23.032 174.207C23.2288 174.456 23.3617 174.749 23.419 175.061C23.6658 176.591 23.3385 178.158 22.5 179.461C21.4697 180.841 20.2554 182.074 18.891 183.125L20.1071 184.368C21.4501 185.699 22.792 187.068 24.085 188.451C24.53 188.93 24.954 189.419 25.378 189.909C25.23 189.194 24.96 187.879 24.96 187.763C24.784 185.887 25.4221 182.03 27.1231 180.963C27.3915 180.793 27.6974 180.693 28.0139 180.669C28.3304 180.645 28.6479 180.7 28.9386 180.827C29.2292 180.955 29.484 181.152 29.6808 181.401C29.8775 181.65 30.0102 181.944 30.0671 182.256C30.3201 183.787 29.9901 185.357 29.142 186.656C28.1546 187.995 26.9861 189.191 25.67 190.21C26.37 191.035 27.051 191.872 27.684 192.735C27.926 193.115 28.245 193.483 28.476 193.863L29.2021 194.996C29.6751 195.789 30.116 196.526 30.533 197.279C30.748 197.642 30.94 198.006 31.144 198.379C30.891 197.691 30.4841 196.591 30.4841 196.486C30.0661 194.692 30.1921 190.825 31.7611 189.493C31.9934 189.276 32.2755 189.121 32.5823 189.039C32.8892 188.958 33.2115 188.954 33.5205 189.026C33.8295 189.099 34.1158 189.247 34.354 189.457C34.5922 189.667 34.7749 189.932 34.8861 190.23C34.9602 190.391 35.0191 190.558 35.0621 190.73C36.1716 191.783 36.9821 193.112 37.4111 194.581C37.4391 194.696 37.658 196.1 37.752 196.826C37.791 196.21 37.8351 195.599 37.8681 194.961C37.9181 194.042 37.9501 193.068 37.9831 192.127C37.9831 191.637 37.972 191.159 37.9831 190.652C37.9941 190.145 37.9391 189.672 37.9391 189.178C37.9061 188.457 37.8391 187.714 37.7741 186.978C36.3474 187.205 34.8911 187.165 33.4791 186.86C32.8268 186.643 32.2363 186.272 31.7577 185.779C31.279 185.286 30.9262 184.684 30.7291 184.026C30.5667 183.344 30.6587 182.626 30.9879 182.008C31.3171 181.389 31.8609 180.911 32.517 180.665C34.36 180.181 36.6001 182.777 37.3041 184.428C37.326 184.477 37.442 184.852 37.573 185.292C37.491 184.571 37.4081 183.851 37.3041 183.13C37.0041 181.077 36.649 179.009 36.297 176.93C36.22 176.495 36.154 176.061 36.0821 175.63C34.6199 175.848 33.1308 175.809 31.682 175.515C31.0286 175.302 30.4367 174.933 29.9575 174.44C29.4782 173.948 29.126 173.346 28.931 172.687C28.7673 172.005 28.8587 171.286 29.1881 170.667C29.5174 170.048 30.062 169.57 30.7191 169.325C32.5621 168.841 34.802 171.433 35.5 173.083C35.5271 173.143 35.6651 173.583 35.8131 174.083C35.6371 172.95 35.4721 171.817 35.3401 170.683C35.1 168.718 34.9794 166.74 34.9791 164.76C34.7371 164.793 31.705 165.172 30.434 164.666C29.7819 164.449 29.1915 164.078 28.7129 163.585C28.2342 163.092 27.8813 162.49 27.684 161.832C27.5203 161.15 27.6117 160.431 27.9411 159.812C28.2704 159.193 28.815 158.715 29.472 158.47C31.3151 157.986 33.555 160.583 34.253 162.233C34.302 162.333 34.7871 163.95 34.9401 164.533V164.46C34.9729 162.484 35.1567 160.514 35.49 158.567C35.7807 156.815 36.1609 155.08 36.629 153.367C37.041 151.767 37.5091 150.324 37.9291 149.053C38.16 148.366 38.3851 147.738 38.5951 147.153H38.556V144.403C38.715 142.488 40.0361 138.791 41.8561 138.153C43.1661 137.691 44.2941 138.686 44.4251 140.172C44.4036 141.733 43.7969 143.229 42.725 144.364C41.5229 145.463 40.1637 146.377 38.6921 147.076C38.4831 147.681 38.263 148.336 38.032 149.062C37.641 150.339 37.201 151.786 36.8161 153.381C36.7161 153.81 36.616 154.272 36.516 154.712C36.816 154.012 37.2481 152.995 37.2981 152.912C38.1981 151.218 40.813 148.472 42.598 148.846C43.885 149.116 44.43 150.656 43.946 152.114C43.6582 152.798 43.2343 153.417 42.7 153.933C42.1657 154.449 41.5323 154.85 40.838 155.114C39.3718 155.503 37.8487 155.631 36.338 155.494C36.138 156.478 35.9381 157.502 35.7881 158.569C35.4911 160.501 35.342 162.452 35.3421 164.407H35.447C35.656 163.707 36.1291 162.245 36.1791 162.129C36.9551 160.347 39.2991 157.315 41.1311 157.458C42.4311 157.558 43.131 159.004 42.782 160.495C42.3127 161.941 41.2928 163.145 39.9431 163.845C38.4798 164.418 36.9304 164.74 35.3601 164.797C35.4032 166.701 35.5574 168.6 35.822 170.486C36.008 171.878 36.251 173.264 36.504 174.657C36.642 174.157 37.2631 172.241 37.3181 172.104C38.0941 170.321 40.4381 167.295 42.2701 167.433C43.5701 167.533 44.27 168.973 43.921 170.47C43.4517 171.918 42.4321 173.123 41.0821 173.826C39.6273 174.401 38.0844 174.721 36.5211 174.772C36.6371 175.405 36.7521 176.038 36.8731 176.665C37.264 178.728 37.6651 180.792 38.0061 182.849C38.1221 183.559 38.215 184.269 38.306 184.984C38.5321 184.23 38.9661 182.893 39.0061 182.784C39.7821 181.001 42.125 177.969 43.958 178.112C45.258 178.212 45.958 179.658 45.6081 181.149C45.1357 182.594 44.1167 183.797 42.769 184.5C41.3668 185.061 39.8784 185.378 38.3691 185.435C38.5171 186.623 38.65 187.801 38.727 188.979C38.749 189.491 38.7981 190.002 38.7981 190.498V191.967C38.7821 192.979 38.771 193.915 38.738 194.855C38.722 195.334 38.6781 195.785 38.6781 196.247C38.8101 195.471 39.0411 194.247 39.0781 194.134C39.6121 192.264 41.5651 188.907 43.4241 188.72C44.7621 188.588 45.6521 189.859 45.4981 191.378C45.1996 192.892 44.3384 194.237 43.088 195.141C41.7114 195.948 40.2145 196.53 38.654 196.864C38.605 197.997 38.5391 199.098 38.4671 200.132C38.2671 203.07 37.9991 205.606 37.78 207.472H36.546C36.821 205.645 37.1071 203.114 37.3711 200.144C37.4541 199.214 37.531 198.223 37.602 197.206C36.1487 197.166 34.7119 196.886 33.349 196.38C32.7082 197.23 32.0212 198.044 31.291 198.818C31.791 199.737 32.2601 200.628 32.6911 201.481C33.8851 203.836 34.8421 205.899 35.5361 207.473H34.1091C33.4871 206.009 32.6891 204.21 31.7211 202.197C31.33 201.436 30.939 200.594 30.615 199.874Z" fill="black"/>
<path opacity="0.2" d="M1.0681 167.974C0.734436 167.356 0.634783 166.639 0.787437 165.954C0.940091 165.269 1.3348 164.661 1.8991 164.244C3.5781 163.132 6.4821 164.706 7.6161 165.96C7.7161 166.07 9.0361 168.001 9.0301 168.007C9.0241 168.013 5.9431 169.591 4.4971 169.591C3.8344 169.642 3.16985 169.52 2.56869 169.236C1.96752 168.953 1.45041 168.518 1.0681 167.974Z" fill="black"/>
<path d="M90.035 43.0759C90.0395 39.8562 89.1401 36.6999 87.4393 33.9661C85.7385 31.2323 83.3045 29.0308 80.4142 27.612C77.524 26.1932 74.2935 25.6142 71.0904 25.9408C67.8873 26.2673 64.8402 27.4864 62.2957 29.4593C59.7513 31.4322 57.8117 34.0796 56.6976 37.1004C55.5834 40.1212 55.3396 43.3941 55.9938 46.5466C56.6479 49.6992 58.1738 52.6048 60.3978 54.933C62.6218 57.2611 65.4547 58.9183 68.574 59.7159L72.689 66.8939L76.613 59.8939C80.4292 59.0347 83.8386 56.9003 86.2786 53.8429C88.7187 50.7855 90.0437 46.9876 90.035 43.0759Z" fill="white"/>
<path d="M74.471 52.036V54.883H71.935V52.143C69.6812 52.0678 67.4934 51.3636 65.619 50.11L67.019 47.023C68.4759 48.0349 70.1697 48.6529 71.936 48.817V44.582C69.125 43.9 65.955 42.955 65.955 39.33C65.955 36.65 67.905 34.342 71.936 33.887V31.064H74.472V33.828C76.2851 33.9344 78.0475 34.4672 79.616 35.383L78.348 38.494C77.1548 37.8055 75.8378 37.3583 74.472 37.178V41.497C77.283 42.155 80.382 43.088 80.382 46.665C80.392 49.272 78.454 51.557 74.471 52.036ZM71.935 40.836V37.247C70.595 37.547 70.057 38.288 70.057 39.113C70.057 39.938 70.823 40.477 71.935 40.836ZM76.29 46.936C76.29 46.051 75.56 45.573 74.471 45.19V48.69C75.739 48.403 76.29 47.745 76.29 46.931V46.936Z" fill="#4C8613"/>
<path d="M36.5651 86.7669L45.8561 216.174L142.745 204.892L115.536 81.4579L36.5651 86.7669Z" fill="#4C8613" stroke="#263238" stroke-linecap="round" stroke-linejoin="round"/>
<path d="M36.564 86.7668L22.6281 209.535L45.855 216.171L36.564 86.7668Z" fill="#4C8613" stroke="#263238" stroke-linecap="round" stroke-linejoin="round"/>
<path opacity="0.1" d="M45.855 216.174L36.564 86.7668L22.6281 209.535L45.855 216.174Z" fill="black"/>
<path d="M63.8341 93.6099C63.8341 93.6099 69.3251 117.037 84.6621 119.283C99.9991 121.529 104.498 88.2689 104.498 88.2689" stroke="#263238" stroke-linecap="round" stroke-linejoin="round"/>
<path d="M63.8341 95.9269C65.4379 95.9269 66.7381 94.6267 66.7381 93.0229C66.7381 91.4191 65.4379 90.1189 63.8341 90.1189C62.2302 90.1189 60.9301 91.4191 60.9301 93.0229C60.9301 94.6267 62.2302 95.9269 63.8341 95.9269Z" fill="#263238"/>
<path d="M207.726 35.7288H129.856C124.437 35.7288 120.043 40.1222 120.043 45.5418V201.62C120.043 207.039 124.437 211.433 129.856 211.433H207.726C213.146 211.433 217.539 207.039 217.539 201.62V45.5418C217.539 40.1222 213.146 35.7288 207.726 35.7288Z" fill="#263238" stroke="#263238" stroke-linecap="round" stroke-linejoin="round"/>
<path d="M203.207 35.7288H125.337C119.918 35.7288 115.524 40.1222 115.524 45.5418V201.62C115.524 207.039 119.918 211.433 125.337 211.433H203.207C208.627 211.433 213.02 207.039 213.02 201.62V45.5418C213.02 40.1222 208.627 35.7288 203.207 35.7288Z" fill="white" stroke="#263238" stroke-linecap="round" stroke-linejoin="round"/>
<path d="M171.01 46.2227H158.871C158.541 46.2227 158.224 46.0914 157.99 45.8578C157.756 45.6241 157.625 45.3072 157.625 44.9767C157.627 44.647 157.76 44.3314 157.993 44.0983C158.226 43.8651 158.541 43.7331 158.871 43.7307H171.01C171.341 43.7307 171.658 43.862 171.891 44.0957C172.125 44.3293 172.256 44.6463 172.256 44.9767C172.257 45.1392 172.226 45.3002 172.165 45.4508C172.104 45.6013 172.014 45.7383 171.9 45.854C171.786 45.9698 171.65 46.0619 171.501 46.1251C171.351 46.1884 171.191 46.2215 171.028 46.2227H171.01Z" fill="#263238"/>
<path d="M206.849 46.4128V195.725H121.685V46.3678H141.866L144.128 48.2488C144.925 48.9054 145.924 49.2652 146.956 49.2668H182.581C183.653 49.2675 184.689 48.8763 185.492 48.1668L187.55 46.4118L206.849 46.4128Z" fill="#263238"/>
<path d="M206.851 195.727H121.684V46.3728H141.865L144.129 48.2508C144.924 48.9072 145.923 49.267 146.954 49.2688H182.58C183.653 49.2708 184.689 48.8794 185.493 48.1688L187.546 46.4138H206.846L206.851 195.727Z" stroke="#263238" stroke-linecap="round" stroke-linejoin="round"/>
<path d="M166.988 200.333C166.988 199.949 166.874 199.574 166.661 199.256C166.448 198.937 166.145 198.688 165.791 198.541C165.437 198.395 165.047 198.356 164.671 198.431C164.295 198.506 163.949 198.691 163.678 198.962C163.407 199.233 163.222 199.578 163.147 199.955C163.073 200.331 163.111 200.721 163.258 201.075C163.404 201.429 163.653 201.732 163.972 201.945C164.291 202.158 164.666 202.272 165.049 202.272H165.057C165.569 202.272 166.06 202.068 166.422 201.707C166.784 201.345 166.988 200.854 166.988 200.342V200.333Z" fill="#263238"/>
<path opacity="0.2" d="M206.844 118.049V137.168L148.282 195.725H129.167L206.844 118.049Z" fill="white"/>
<path opacity="0.2" d="M206.849 56.1577V87.5897L121.685 172.755V141.328L206.849 56.1577Z" fill="white"/>
<path d="M215.107 73.7229H107.525C102.857 73.7229 99.0731 77.507 99.0731 82.1749V139.529C99.0731 144.197 102.857 147.981 107.525 147.981H215.107C219.775 147.981 223.559 144.197 223.559 139.529V82.1749C223.559 77.507 219.775 73.7229 215.107 73.7229Z" fill="white" stroke="#263238" stroke-linecap="round" stroke-linejoin="round"/>
<path d="M128.491 91.4569V86.3449H126.475V85.1569H131.965V86.3449H129.949V91.4569H128.491ZM137.07 85.1569H138.528V91.4569H137.07V88.8739H134.208V91.4569H132.75V85.1569H134.208V87.6409H137.07V85.1569ZM144.725 91.4569L144.167 90.1069H141.242L140.684 91.4569H139.19L141.998 85.1569H143.438L146.255 91.4569H144.725ZM141.71 88.9999H143.708L142.709 86.5879L141.71 88.9999ZM151.247 85.1569H152.687V91.4569H151.49L148.349 87.6319V91.4569H146.909V85.1569H148.115L151.247 88.9819V85.1569ZM158.488 91.4569L156.472 88.9819L155.626 89.8639V91.4569H154.177V85.1569H155.626V88.0999L158.416 85.1569H160.036L157.426 87.9649L160.189 91.4569H158.488ZM168.86 85.1569L166.412 89.2249V91.4569H164.954V89.2069L162.515 85.1569H164.063L165.746 87.9559L167.429 85.1569H168.86ZM172.249 91.5649C170.26 91.5649 168.802 90.1789 168.802 88.3069C168.802 86.4349 170.26 85.0489 172.249 85.0489C174.229 85.0489 175.696 86.4259 175.696 88.3069C175.696 90.1879 174.229 91.5649 172.249 91.5649ZM172.249 90.3229C173.374 90.3229 174.22 89.5039 174.22 88.3069C174.22 87.1099 173.374 86.2909 172.249 86.2909C171.124 86.2909 170.278 87.1099 170.278 88.3069C170.278 89.5039 171.124 90.3229 172.249 90.3229ZM179.591 91.5649C177.8 91.5649 176.738 90.5389 176.738 88.6849V85.1569H178.196V88.6309C178.196 89.8279 178.718 90.3229 179.6 90.3229C180.491 90.3229 181.004 89.8279 181.004 88.6309V85.1569H182.444V88.6849C182.444 90.5389 181.382 91.5649 179.591 91.5649ZM183.884 89.2699L183.605 85.1569H185.279L185 89.2699H183.884ZM184.442 91.5289C183.938 91.5289 183.578 91.1599 183.578 90.7099C183.578 90.2509 183.938 89.9089 184.442 89.9089C184.946 89.9089 185.306 90.2509 185.306 90.7099C185.306 91.1599 184.946 91.5289 184.442 91.5289Z" fill="#4C8613"/>
<path d="M124.987 101.058L123.577 103.353V104.558H123.322V103.353L121.912 101.058H122.192L123.457 103.118L124.722 101.058H124.987ZM126.264 104.578C125.514 104.578 124.959 104.028 124.959 103.253C124.959 102.478 125.514 101.928 126.264 101.928C127.014 101.928 127.569 102.478 127.569 103.253C127.569 104.028 127.014 104.578 126.264 104.578ZM126.264 104.353C126.864 104.353 127.314 103.908 127.314 103.253C127.314 102.598 126.864 102.153 126.264 102.153C125.664 102.153 125.214 102.598 125.214 103.253C125.214 103.908 125.664 104.353 126.264 104.353ZM130.38 101.948H130.63V104.558H130.39V103.998C130.22 104.363 129.865 104.578 129.405 104.578C128.74 104.578 128.315 104.203 128.315 103.473V101.948H128.565V103.453C128.565 104.043 128.88 104.353 129.425 104.353C130.015 104.353 130.38 103.958 130.38 103.338V101.948ZM131.93 102.518C132.09 102.138 132.435 101.928 132.925 101.928V102.173C132.905 102.173 132.885 102.168 132.865 102.168C132.285 102.168 131.94 102.553 131.94 103.198V104.558H131.69V101.948H131.93V102.518ZM135.961 104.578C135.211 104.578 134.656 104.028 134.656 103.253C134.656 102.478 135.211 101.928 135.961 101.928C136.711 101.928 137.266 102.478 137.266 103.253C137.266 104.028 136.711 104.578 135.961 104.578ZM135.961 104.353C136.561 104.353 137.011 103.908 137.011 103.253C137.011 102.598 136.561 102.153 135.961 102.153C135.361 102.153 134.911 102.598 134.911 103.253C134.911 103.908 135.361 104.353 135.961 104.353ZM138.282 102.518C138.442 102.138 138.787 101.928 139.277 101.928V102.173C139.257 102.173 139.237 102.168 139.217 102.168C138.637 102.168 138.292 102.553 138.292 103.198V104.558H138.042V101.948H138.282V102.518ZM142.011 100.848H142.261V104.558H142.016V103.943C141.811 104.348 141.416 104.578 140.946 104.578C140.211 104.578 139.656 104.033 139.656 103.253C139.656 102.468 140.211 101.928 140.946 101.928C141.411 101.928 141.801 102.158 142.011 102.553V100.848ZM140.961 104.353C141.561 104.353 142.011 103.908 142.011 103.253C142.011 102.598 141.561 102.153 140.961 102.153C140.361 102.153 139.911 102.598 139.911 103.253C139.911 103.908 140.361 104.353 140.961 104.353ZM145.526 103.243C145.526 103.263 145.521 103.288 145.521 103.313H143.276C143.301 103.933 143.756 104.353 144.381 104.353C144.711 104.353 145.016 104.233 145.216 103.988L145.361 104.153C145.131 104.433 144.771 104.578 144.376 104.578C143.586 104.578 143.031 104.028 143.031 103.253C143.031 102.478 143.566 101.928 144.281 101.928C144.996 101.928 145.526 102.468 145.526 103.243ZM144.281 102.148C143.726 102.148 143.321 102.548 143.281 103.118H145.281C145.246 102.553 144.836 102.148 144.281 102.148ZM146.539 102.518C146.699 102.138 147.044 101.928 147.534 101.928V102.173C147.514 102.173 147.494 102.168 147.474 102.168C146.894 102.168 146.549 102.553 146.549 103.198V104.558H146.299V101.948H146.539V102.518ZM149.676 101.313C149.561 101.313 149.471 101.223 149.471 101.113C149.471 101.003 149.561 100.908 149.676 100.908C149.791 100.908 149.881 100.998 149.881 101.108C149.881 101.223 149.791 101.313 149.676 101.313ZM149.551 104.558V101.948H149.801V104.558H149.551ZM151.515 104.578C151.085 104.578 150.675 104.433 150.47 104.243L150.585 104.043C150.785 104.213 151.14 104.358 151.525 104.358C152.075 104.358 152.295 104.163 152.295 103.868C152.295 103.108 150.565 103.668 150.565 102.643C150.565 102.248 150.895 101.928 151.555 101.928C151.885 101.928 152.245 102.028 152.45 102.183L152.335 102.383C152.115 102.223 151.83 102.148 151.55 102.148C151.04 102.148 150.815 102.358 150.815 102.638C150.815 103.423 152.545 102.868 152.545 103.863C152.545 104.288 152.18 104.578 151.515 104.578ZM155.561 104.578C154.796 104.578 154.241 104.028 154.241 103.253C154.241 102.473 154.796 101.928 155.561 101.928C155.976 101.928 156.336 102.088 156.551 102.408L156.366 102.543C156.176 102.278 155.886 102.153 155.561 102.153C154.946 102.153 154.496 102.593 154.496 103.253C154.496 103.913 154.946 104.353 155.561 104.353C155.886 104.353 156.176 104.228 156.366 103.963L156.551 104.098C156.336 104.413 155.976 104.578 155.561 104.578ZM158.276 104.578C157.526 104.578 156.971 104.028 156.971 103.253C156.971 102.478 157.526 101.928 158.276 101.928C159.026 101.928 159.581 102.478 159.581 103.253C159.581 104.028 159.026 104.578 158.276 104.578ZM158.276 104.353C158.876 104.353 159.326 103.908 159.326 103.253C159.326 102.598 158.876 102.153 158.276 102.153C157.676 102.153 157.226 102.598 157.226 103.253C157.226 103.908 157.676 104.353 158.276 104.353ZM161.632 101.928C162.267 101.928 162.692 102.303 162.692 103.033V104.558H162.442V103.053C162.442 102.463 162.127 102.153 161.597 102.153C160.982 102.153 160.607 102.548 160.607 103.168V104.558H160.357V101.948H160.597V102.513C160.772 102.148 161.137 101.928 161.632 101.928ZM163.771 101.548C163.771 101.113 164.031 100.828 164.496 100.828C164.686 100.828 164.886 100.883 165.011 100.998L164.911 101.188C164.806 101.093 164.661 101.043 164.506 101.043C164.181 101.043 164.016 101.223 164.016 101.568V101.948H164.851V102.163H164.021V104.558H163.771V102.163H163.291V101.948H163.771V101.548ZM165.886 100.908C166.001 100.908 166.091 100.998 166.091 101.108C166.091 101.223 166.001 101.313 165.886 101.313C165.771 101.313 165.681 101.223 165.681 101.113C165.681 101.003 165.771 100.908 165.886 100.908ZM165.761 104.558V101.948H166.011V104.558H165.761ZM167.306 102.518C167.466 102.138 167.811 101.928 168.301 101.928V102.173C168.281 102.173 168.261 102.168 168.241 102.168C167.661 102.168 167.316 102.553 167.316 103.198V104.558H167.066V101.948H167.306V102.518ZM172.239 101.928C172.869 101.928 173.279 102.303 173.279 103.033V104.558H173.029V103.053C173.029 102.463 172.724 102.153 172.214 102.153C171.624 102.153 171.259 102.548 171.259 103.168V104.558H171.009V103.053C171.009 102.463 170.704 102.153 170.194 102.153C169.604 102.153 169.239 102.548 169.239 103.168V104.558H168.989V101.948H169.229V102.508C169.399 102.143 169.754 101.928 170.229 101.928C170.699 101.928 171.044 102.143 171.184 102.558C171.354 102.178 171.734 101.928 172.239 101.928ZM176.526 103.243C176.526 103.263 176.521 103.288 176.521 103.313H174.276C174.301 103.933 174.756 104.353 175.381 104.353C175.711 104.353 176.016 104.233 176.216 103.988L176.361 104.153C176.131 104.433 175.771 104.578 175.376 104.578C174.586 104.578 174.031 104.028 174.031 103.253C174.031 102.478 174.566 101.928 175.281 101.928C175.996 101.928 176.526 102.468 176.526 103.243ZM175.281 102.148C174.726 102.148 174.321 102.548 174.281 103.118H176.281C176.246 102.553 175.836 102.148 175.281 102.148ZM179.37 100.848H179.62V104.558H179.375V103.943C179.17 104.348 178.775 104.578 178.305 104.578C177.57 104.578 177.015 104.033 177.015 103.253C177.015 102.468 177.57 101.928 178.305 101.928C178.77 101.928 179.16 102.158 179.37 102.553V100.848ZM178.32 104.353C178.92 104.353 179.37 103.908 179.37 103.253C179.37 102.598 178.92 102.153 178.32 102.153C177.72 102.153 177.27 102.598 177.27 103.253C177.27 103.908 177.72 104.353 178.32 104.353Z" fill="black"/>
<path d="M199.579 132.012H148.528C146.601 132.012 144.754 131.247 143.391 129.884C142.029 128.522 141.263 126.674 141.263 124.747C141.263 122.82 142.029 120.972 143.391 119.61C144.754 118.247 146.601 117.482 148.528 117.482H199.579C201.506 117.482 203.354 118.247 204.716 119.61C206.079 120.972 206.844 122.82 206.844 124.747C206.844 126.674 206.079 128.522 204.716 129.884C203.354 131.247 201.506 132.012 199.579 132.012Z" fill="#4C8613"/>
<path d="M150.389 125.508C149.521 125.508 148.873 124.904 148.873 124.06C148.873 123.216 149.521 122.612 150.393 122.612C150.877 122.612 151.281 122.788 151.545 123.108L151.129 123.492C150.941 123.276 150.705 123.164 150.425 123.164C149.901 123.164 149.529 123.532 149.529 124.06C149.529 124.588 149.901 124.956 150.425 124.956C150.705 124.956 150.941 124.844 151.129 124.624L151.545 125.008C151.281 125.332 150.877 125.508 150.389 125.508ZM153.903 122.66H154.551V125.46H153.903V124.312H152.631V125.46H151.983V122.66H152.631V123.764H153.903V122.66ZM155.857 124.94H157.381V125.46H155.213V122.66H157.329V123.18H155.857V123.788H157.157V124.292H155.857V124.94ZM159.229 125.508C158.361 125.508 157.713 124.904 157.713 124.06C157.713 123.216 158.361 122.612 159.233 122.612C159.717 122.612 160.121 122.788 160.385 123.108L159.969 123.492C159.781 123.276 159.545 123.164 159.265 123.164C158.741 123.164 158.369 123.532 158.369 124.06C158.369 124.588 158.741 124.956 159.265 124.956C159.545 124.956 159.781 124.844 159.969 124.624L160.385 125.008C160.121 125.332 159.717 125.508 159.229 125.508ZM162.739 125.46L161.843 124.36L161.467 124.752V125.46H160.823V122.66H161.467V123.968L162.707 122.66H163.427L162.267 123.908L163.495 125.46H162.739ZM165.836 125.508C165.392 125.508 164.944 125.376 164.696 125.184L164.916 124.696C165.152 124.868 165.504 124.988 165.84 124.988C166.224 124.988 166.38 124.86 166.38 124.688C166.38 124.164 164.752 124.524 164.752 123.484C164.752 123.008 165.136 122.612 165.932 122.612C166.284 122.612 166.644 122.696 166.904 122.86L166.704 123.352C166.444 123.204 166.176 123.132 165.928 123.132C165.544 123.132 165.396 123.276 165.396 123.452C165.396 123.968 167.024 123.612 167.024 124.64C167.024 125.108 166.636 125.508 165.836 125.508ZM168.008 125.46V123.188H167.112V122.66H169.552V123.188H168.656V125.46H168.008ZM171.852 125.46L171.604 124.86H170.304L170.056 125.46H169.392L170.64 122.66H171.28L172.532 125.46H171.852ZM170.512 124.368H171.4L170.956 123.296L170.512 124.368ZM173.262 125.46V123.188H172.366V122.66H174.806V123.188H173.91V125.46H173.262ZM176.352 125.508C175.556 125.508 175.084 125.052 175.084 124.228V122.66H175.732V124.204C175.732 124.736 175.964 124.956 176.356 124.956C176.752 124.956 176.98 124.736 176.98 124.204V122.66H177.62V124.228C177.62 125.052 177.148 125.508 176.352 125.508ZM179.18 125.508C178.736 125.508 178.288 125.376 178.04 125.184L178.26 124.696C178.496 124.868 178.848 124.988 179.184 124.988C179.568 124.988 179.724 124.86 179.724 124.688C179.724 124.164 178.096 124.524 178.096 123.484C178.096 123.008 178.48 122.612 179.276 122.612C179.628 122.612 179.988 122.696 180.248 122.86L180.048 123.352C179.788 123.204 179.52 123.132 179.272 123.132C178.888 123.132 178.74 123.276 178.74 123.452C178.74 123.968 180.368 123.612 180.368 124.64C180.368 125.108 179.98 125.508 179.18 125.508Z" fill="#263238"/>
<path d="M131.968 131.3C135.587 127.681 135.587 121.813 131.968 118.194C128.349 114.575 122.482 114.575 118.863 118.194C115.244 121.813 115.244 127.681 118.863 131.3C122.482 134.919 128.349 134.919 131.968 131.3Z" fill="#4C8613"/>
<path opacity="0.2" d="M131.968 131.3C135.587 127.681 135.587 121.813 131.968 118.194C128.349 114.575 122.482 114.575 118.863 118.194C115.244 121.813 115.244 127.681 118.863 131.3C122.482 134.919 128.349 134.919 131.968 131.3Z" fill="white"/>
<path d="M129.757 128.959C132.104 126.612 132.104 122.808 129.757 120.461C127.41 118.114 123.606 118.114 121.259 120.461C118.912 122.808 118.912 126.612 121.259 128.959C123.606 131.306 127.41 131.306 129.757 128.959Z" fill="white" stroke="#263238" stroke-miterlimit="10"/>
<path d="M122.729 124.02L125.041 127.257L129.204 121.938" stroke="#263238" stroke-linecap="round" stroke-linejoin="round"/>
<path d="M74.0901 147.981L79.1231 218.081L131.606 211.97L116.868 145.108L74.0901 147.981Z" fill="#4C8613" stroke="#263238" stroke-linecap="round" stroke-linejoin="round"/>
<path d="M74.0901 147.981L66.5411 214.481L79.1231 218.076L74.0901 147.981Z" fill="#4C8613" stroke="#263238" stroke-linecap="round" stroke-linejoin="round"/>
<path opacity="0.1" d="M79.1231 218.081L73.9951 148.82L66.5411 214.481L79.1231 218.081Z" fill="black"/>
<path d="M89.6211 151.314C89.6211 151.314 93.6211 163.55 101.902 164.043C110.183 164.536 109.028 149.921 109.028 149.921" stroke="#263238" stroke-linecap="round" stroke-linejoin="round"/>
<path d="M90.7072 151.314C90.7072 151.529 90.6435 151.739 90.5241 151.917C90.4048 152.096 90.2352 152.235 90.0368 152.317C89.8383 152.399 89.62 152.421 89.4093 152.379C89.1986 152.337 89.0051 152.234 88.8532 152.082C88.7014 151.93 88.5979 151.736 88.556 151.526C88.5141 151.315 88.5356 151.097 88.6178 150.898C88.7 150.7 88.8392 150.53 89.0178 150.411C89.1964 150.292 89.4064 150.228 89.6212 150.228C89.9091 150.228 90.1852 150.343 90.3888 150.546C90.5924 150.75 90.7069 151.026 90.7072 151.314Z" fill="#263238"/>
<path d="M109.934 149.92C109.934 150.135 109.87 150.345 109.751 150.523C109.632 150.702 109.462 150.841 109.264 150.923C109.065 151.005 108.847 151.027 108.636 150.985C108.426 150.943 108.232 150.84 108.08 150.688C107.928 150.536 107.825 150.342 107.783 150.132C107.741 149.921 107.763 149.703 107.845 149.504C107.927 149.306 108.066 149.136 108.245 149.017C108.423 148.898 108.633 148.834 108.848 148.834C109.136 148.834 109.412 148.948 109.616 149.152C109.82 149.356 109.934 149.632 109.934 149.92Z" fill="#263238"/>
</svg>
