<svg width="19" height="20" viewBox="0 0 19 20" fill="none" xmlns="http://www.w3.org/2000/svg">
<path d="M1.38806 7.35309C1.67843 6.0486 2.32715 4.85105 3.26121 3.89526C4.19528 2.93946 5.37759 2.26337 6.67506 1.94309C8.56814 1.48837 10.542 1.48837 12.4351 1.94309C13.7325 2.26337 14.9148 2.93946 15.8489 3.89526C16.783 4.85105 17.4317 6.0486 17.7221 7.35309C18.1672 9.29457 18.1672 11.3116 17.7221 13.2531C17.4317 14.5576 16.783 15.7551 15.8489 16.7109C14.9148 17.6667 13.7325 18.3428 12.4351 18.6631C10.542 19.1178 8.56814 19.1178 6.67506 18.6631C5.37759 18.3428 4.19528 17.6667 3.26121 16.7109C2.32715 15.7551 1.67843 14.5576 1.38806 13.2531C0.942912 11.3116 0.942912 9.29457 1.38806 7.35309Z" fill="#4C8613" fill-opacity="0.15" stroke="#4C8613" stroke-width="1.5"/>
<path d="M5.64795 1.66504L6.15495 2.74204L5.64795 1.66504ZM13.4679 1.66504L13.1849 2.74204L13.4679 1.66504Z" fill="#363853" fill-opacity="0.15"/>
<path d="M5.64795 1.66504L6.15495 2.74204M13.4679 1.66504L13.1849 2.74204" stroke="#4C8613" stroke-width="1.5"/>
<path d="M12.5801 14.7462C12.4426 14.7453 12.3079 14.7073 12.1901 14.6362L8.27015 12.2962C8.15852 12.2305 8.06578 12.137 8.00095 12.0249C7.93611 11.9127 7.90139 11.7857 7.90015 11.6562V6.6062C7.90015 6.40729 7.97916 6.21652 8.11982 6.07587C8.26047 5.93522 8.45123 5.8562 8.65015 5.8562C8.84906 5.8562 9.03982 5.93522 9.18048 6.07587C9.32113 6.21652 9.40015 6.40729 9.40015 6.6062V11.2262L12.9601 13.3462C13.1308 13.4486 13.254 13.6145 13.3027 13.8075C13.3515 14.0006 13.3218 14.205 13.2201 14.3762C13.1551 14.4884 13.0618 14.5817 12.9495 14.6466C12.8372 14.7115 12.7099 14.7458 12.5801 14.7462Z" fill="#4C8613"/>
</svg>
