<svg width="20" height="20" viewBox="0 0 20 20" fill="none" xmlns="http://www.w3.org/2000/svg">
<path d="M1.35297 6.94998C1.67211 5.58757 2.36548 4.34139 3.35493 3.35194C4.34438 2.36249 5.59056 1.66912 6.95297 1.34998C8.95907 0.879353 11.0469 0.879353 13.053 1.34998C14.4154 1.66912 15.6616 2.36249 16.651 3.35194C17.6405 4.34139 18.3338 5.58757 18.653 6.94998C19.1236 8.95608 19.1236 11.0439 18.653 13.05C18.3338 14.4124 17.6405 15.6586 16.651 16.648C15.6616 17.6375 14.4154 18.3308 13.053 18.65C11.0469 19.1206 8.95907 19.1206 6.95297 18.65C5.59056 18.3308 4.34438 17.6375 3.35493 16.648C2.36548 15.6586 1.67211 14.4124 1.35297 13.05C0.882344 11.0439 0.882344 8.95608 1.35297 6.94998Z" fill="#4C8613" fill-opacity="0.15" stroke="#4C8613" stroke-width="1.5"/>
<path d="M10 5.99997C9.20888 5.99997 8.43552 6.23457 7.77772 6.67409C7.11992 7.11362 6.60723 7.73833 6.30448 8.46924C6.00173 9.20014 5.92252 10.0044 6.07686 10.7803C6.2312 11.5563 6.61216 12.269 7.17157 12.8284C7.73098 13.3878 8.44372 13.7688 9.21964 13.9231C9.99556 14.0775 10.7998 13.9982 11.5307 13.6955C12.2616 13.3927 12.8864 12.88 13.3259 12.2222C13.7654 11.5645 14 10.7911 14 9.99997C14 8.9391 13.5786 7.92169 12.8284 7.17154C12.0783 6.4214 11.0609 5.99997 10 5.99997ZM12.768 8.39997H11.588C11.4628 7.90455 11.2774 7.42633 11.036 6.97597C11.7656 7.22717 12.3805 7.73266 12.768 8.39997ZM10 6.81597C10.336 7.30073 10.5938 7.83524 10.764 8.39997H9.236C9.4062 7.83524 9.66401 7.30073 10 6.81597ZM6.9 10.8C6.76134 10.2756 6.76134 9.72429 6.9 9.19997H8.256C8.22115 9.46526 8.20245 9.73241 8.2 9.99997C8.20245 10.2675 8.22115 10.5347 8.256 10.8H6.9ZM7.228 11.6H8.408C8.53319 12.0954 8.71857 12.5736 8.96 13.024C8.23131 12.7729 7.61772 12.2672 7.232 11.6H7.228ZM8.408 8.39997H7.232C7.6187 7.73195 8.23382 7.22621 8.964 6.97597C8.72257 7.42633 8.53719 7.90455 8.412 8.39997H8.408ZM10 13.184C9.66401 12.6992 9.4062 12.1647 9.236 11.6H10.764C10.5938 12.1647 10.336 12.6992 10 13.184ZM10.936 10.8H9.064C9.02449 10.5351 9.00311 10.2678 9 9.99997C9.00295 9.73215 9.02433 9.46485 9.064 9.19997H10.936C10.9757 9.46485 10.9971 9.73215 11 9.99997C10.9969 10.2678 10.9755 10.5351 10.936 10.8ZM11.036 13.024C11.2774 12.5736 11.4628 12.0954 11.588 11.6H12.768C12.3805 12.2673 11.7656 12.7728 11.036 13.024ZM11.744 10.8C11.7789 10.5347 11.7976 10.2675 11.8 9.99997C11.7976 9.73241 11.7789 9.46526 11.744 9.19997H13.1C13.2387 9.72429 13.2387 10.2756 13.1 10.8H11.744Z" fill="#4C8613"/>
</svg>
