<svg width="20" height="20" viewBox="0 0 20 20" fill="none" xmlns="http://www.w3.org/2000/svg">
<path d="M16.3641 3.364C17.6266 4.65243 18.483 6.28322 18.8271 8.054C19.1744 9.83027 18.9965 11.6693 18.3151 13.346C17.6392 15.0127 16.4859 16.4425 15.0001 17.456C13.5265 18.4616 11.784 18.9995 10.0001 18.9995C8.2161 18.9995 6.47359 18.4616 5.00007 17.456C3.51426 16.4425 2.36098 15.0127 1.68507 13.346C1.00364 11.6693 0.825713 9.83027 1.17307 8.054C1.51711 6.28322 2.37353 4.65243 3.63607 3.364M10.0001 1V5.727V1Z" fill="#4C8613" fill-opacity="0.15"/>
<path d="M16.3641 3.364C17.6266 4.65243 18.483 6.28322 18.8271 8.054C19.1744 9.83027 18.9965 11.6693 18.3151 13.346C17.6392 15.0127 16.4859 16.4425 15.0001 17.456C13.5265 18.4616 11.784 18.9995 10.0001 18.9995C8.2161 18.9995 6.47359 18.4616 5.00007 17.456C3.51425 16.4425 2.36098 15.0127 1.68507 13.346C1.00364 11.6693 0.825713 9.83027 1.17307 8.054C1.51711 6.28322 2.37353 4.65243 3.63607 3.364M10.0001 1V5.727" stroke="#4C8613" stroke-width="1.5" stroke-linecap="round"/>
</svg>
