<svg width="16" height="20" viewBox="0 0 16 20" fill="none" xmlns="http://www.w3.org/2000/svg">
<path d="M0.9999 17.111C0.985364 15.9602 1.37927 14.8415 2.11162 13.9537C2.84397 13.066 3.86734 12.4665 4.9999 12.262L5.2079 12.228C7.0541 11.9235 8.9377 11.9235 10.7839 12.228L10.9919 12.262C12.1245 12.4665 13.1478 13.066 13.8802 13.9537C14.6125 14.8415 15.0064 15.9602 14.9919 17.111C14.9999 17.6025 14.813 18.0772 14.4719 18.4312C14.1308 18.7852 13.6634 18.9897 13.1719 19H2.8279C2.33502 18.9918 1.86555 18.7883 1.52275 18.434C1.17995 18.0798 0.991878 17.6039 0.9999 17.111Z" fill="#4C8613" fill-opacity="0.15" stroke="#4C8613" stroke-width="1.5"/>
<path d="M12.083 4.93797C12.0633 6.00137 11.6221 7.01343 10.8565 7.75169C10.0909 8.48994 9.06341 8.89397 7.99999 8.87497C6.93658 8.89397 5.90913 8.48994 5.1435 7.75169C4.37786 7.01343 3.9367 6.00137 3.91699 4.93797C3.93644 3.87439 4.37749 2.86208 5.14315 2.1236C5.90881 1.38513 6.93641 0.980967 7.99999 0.99997C9.06358 0.980967 10.0912 1.38513 10.8568 2.1236C11.6225 2.86208 12.0635 3.87439 12.083 4.93797Z" fill="#4C8613" fill-opacity="0.15" stroke="#4C8613" stroke-width="1.5"/>
</svg>
