<svg width="51" height="16" viewBox="0 0 51 16" fill="none" xmlns="http://www.w3.org/2000/svg">
<path d="M18.636 15.006L21.218 0.484009H25.252L22.752 15.006H18.636Z" fill="#3C58BF"/>
<path d="M18.636 15.006L21.944 0.484009H25.252L22.752 15.006H18.636Z" fill="#293688"/>
<path d="M37.353 0.645003C36.1666 0.20221 34.9083 -0.0164844 33.642 1.39943e-05C29.608 1.39943e-05 26.704 2.017 26.704 4.921C26.704 7.099 28.721 8.229 30.334 8.955C31.947 9.681 32.434 10.165 32.434 10.811C32.434 11.779 31.143 12.263 30.014 12.263C28.6787 12.2924 27.3544 12.0164 26.142 11.456L25.577 11.214L25.01 14.522C26.4825 15.0648 28.0407 15.3381 29.61 15.329C33.886 15.329 36.71 13.312 36.71 10.246C36.71 8.552 35.661 7.261 33.241 6.212C31.789 5.486 30.901 5.083 30.901 4.356C30.901 3.711 31.627 3.065 33.241 3.065C34.2915 3.03347 35.3367 3.22608 36.307 3.63L36.707 3.79101L37.353 0.645003Z" fill="#3C58BF"/>
<path d="M37.353 0.645003C36.1666 0.20221 34.9083 -0.0164844 33.642 1.39943e-05C29.608 1.39943e-05 27.43 2.017 27.43 4.921C27.4241 5.81382 27.7017 6.68547 28.2229 7.41041C28.744 8.13536 29.4818 8.67618 30.33 8.955C31.944 9.681 32.43 10.165 32.43 10.811C32.43 11.779 31.139 12.263 30.01 12.263C28.6747 12.2924 27.3504 12.0164 26.138 11.456L25.573 11.214L25.01 14.522C26.4825 15.0648 28.0407 15.3381 29.61 15.329C33.886 15.329 36.71 13.312 36.71 10.246C36.71 8.552 35.661 7.261 33.241 6.212C31.789 5.486 30.901 5.083 30.901 4.356C30.901 3.711 31.627 3.065 33.241 3.065C34.2915 3.03347 35.3367 3.22608 36.307 3.63L36.707 3.79101L37.353 0.645003Z" fill="#293688"/>
<path d="M44.291 0.484009C43.323 0.484009 42.597 0.56502 42.191 1.53302L36.143 15.006H40.499L41.306 12.586H46.469L46.953 15.006H50.825L47.438 0.484009H44.291ZM42.435 10.165C42.677 9.43901 44.049 5.88901 44.049 5.88901C44.049 5.88901 44.372 5.00201 44.614 4.43701L44.856 5.80801C44.856 5.80801 45.663 9.43801 45.824 10.245H42.436L42.435 10.165Z" fill="#3C58BF"/>
<path d="M45.259 0.484009C44.291 0.484009 43.565 0.56502 43.159 1.53302L36.143 15.006H40.499L41.306 12.586H46.469L46.953 15.006H50.825L47.438 0.484009H45.259ZM42.435 10.165C42.758 9.35801 44.049 5.88901 44.049 5.88901C44.049 5.88901 44.372 5.00201 44.614 4.43701L44.856 5.80801C44.856 5.80801 45.663 9.43801 45.824 10.245H42.436L42.435 10.165Z" fill="#293688"/>
<path d="M11.214 10.6489L10.814 8.54895C9.79893 5.79075 7.78296 3.51561 5.16699 2.17595L8.79699 15.0839H13.153L19.685 0.564941H15.328L11.214 10.6489Z" fill="#3C58BF"/>
<path d="M11.214 10.6489L10.814 8.54895C9.79893 5.79075 7.78296 3.51561 5.16699 2.17595L8.79699 15.0839H13.153L19.685 0.564941H16.135L11.214 10.6489Z" fill="#293688"/>
<path d="M0 0.484009L0.726 0.64502C5.889 1.85502 9.439 4.92101 10.81 8.55101L9.358 1.69402C9.116 0.726016 8.39 0.484009 7.502 0.484009H0Z" fill="#FFBC00"/>
<path d="M0 0.484009C5.163 1.69401 9.439 4.84001 10.811 8.47101L9.44 2.74301C9.34041 2.30431 9.0936 1.91295 8.74063 1.63403C8.38767 1.35512 7.94984 1.20549 7.5 1.21002L0 0.484009Z" fill="#F7981D"/>
<path d="M0 0.484009C5.163 1.69401 9.439 4.84001 10.811 8.47101L9.843 5.32501C9.79527 4.81925 9.61299 4.33551 9.3151 3.92401C9.0172 3.51252 8.61456 3.18829 8.149 2.98502L0 0.484009Z" fill="#ED7C00"/>
<path d="M15.244 10.166L12.501 7.42303L11.214 10.488L10.891 8.47102C9.87595 5.71283 7.85999 3.43769 5.24402 2.09802L8.87402 15.006H13.23L15.244 10.166Z" fill="#051244"/>
<path d="M22.75 15.006L19.2811 11.4561L18.636 15.006H22.75Z" fill="#051244"/>
<path d="M32.029 10.004C32.352 10.327 32.513 10.5691 32.429 10.8911C32.429 11.8591 31.138 12.343 30.009 12.343C28.6737 12.3724 27.3494 12.0964 26.137 11.536L25.572 11.294L25.01 14.604C26.4825 15.1468 28.0407 15.4202 29.61 15.411C32.192 15.411 34.289 14.685 35.499 13.394L32.029 10.004Z" fill="#051244"/>
<path d="M36.708 15.007H40.5L41.307 12.587H46.47L46.954 15.007H50.826L49.455 9.11797L44.614 4.43896L44.856 5.72997C44.856 5.72997 45.663 9.35996 45.824 10.167H42.436C42.759 9.35996 44.049 5.89096 44.049 5.89096C44.049 5.89096 44.372 5.00396 44.614 4.43896" fill="#051244"/>
</svg>
