<svg width="64" height="20" viewBox="0 0 64 20" fill="none" xmlns="http://www.w3.org/2000/svg">
<path d="M23.1201 19.1559L26.3201 1.13989H31.3201L28.2201 19.1559H23.1201Z" fill="#C2C2C2"/>
<path d="M23.1201 19.1559L27.2201 1.13989H31.3201L28.2201 19.1559H23.1201Z" fill="#C2C2C2"/>
<path d="M46.34 1.33885C44.8692 0.790195 43.3096 0.518958 41.74 0.538863C36.74 0.538863 33.132 3.03886 33.132 6.64386C33.132 9.34386 35.632 10.7439 37.632 11.6439C39.632 12.5439 40.232 13.1439 40.232 13.9439C40.232 15.1439 38.632 15.7438 37.232 15.7438C35.5767 15.7801 33.935 15.4381 32.432 14.7438L31.732 14.4439L31.032 18.5439C32.8583 19.2166 34.7907 19.5553 36.737 19.5439C42.037 19.5439 45.545 17.0439 45.545 13.2379C45.545 11.1379 44.245 9.53785 41.245 8.23785C39.445 7.33785 38.345 6.83785 38.345 5.93785C38.345 5.13785 39.245 4.33786 41.245 4.33786C42.5469 4.29896 43.8423 4.53757 45.045 5.03786L45.545 5.23785L46.345 1.33786L46.34 1.33885Z" fill="#C2C2C2"/>
<path d="M46.34 1.33885C44.8692 0.790195 43.3096 0.518958 41.74 0.538863C36.74 0.538863 34.033 3.03886 34.033 6.64386C34.033 9.34386 35.633 10.7439 37.633 11.6439C39.633 12.5439 40.233 13.1439 40.233 13.9439C40.233 15.1439 38.633 15.7438 37.233 15.7438C35.5777 15.7801 33.936 15.4381 32.433 14.7438L31.733 14.4439L31.033 18.5439C32.8593 19.2166 34.7917 19.5553 36.738 19.5439C42.038 19.5439 45.546 17.0439 45.546 13.2379C45.546 11.1379 44.246 9.53785 41.246 8.23785C39.446 7.33785 38.346 6.83785 38.346 5.93785C38.346 5.13785 39.246 4.33786 41.246 4.33786C42.5479 4.29896 43.8433 4.53757 45.046 5.03786L45.546 5.23785L46.346 1.33786L46.34 1.33885Z" fill="#C2C2C2"/>
<path d="M54.9481 1.13989C53.7481 1.13989 52.8481 1.2399 52.3481 2.4399L44.8391 19.1559H50.2391L51.2391 16.1559H57.6451L58.2451 19.1559H63.0451L58.8451 1.13989H54.9481ZM52.6481 13.1499C52.9481 12.2499 54.6481 7.8499 54.6481 7.8499C54.6481 7.8499 55.0481 6.7499 55.3481 6.0499L55.6481 7.74989C55.6481 7.74989 56.6481 12.2499 56.8481 13.2499H52.6481V13.1499Z" fill="#C2C2C2"/>
<path d="M56.1491 1.13989C54.9491 1.13989 54.0491 1.2399 53.5491 2.4399L44.8391 19.1559H50.2391L51.2391 16.1559H57.6451L58.2451 19.1559H63.0451L58.8451 1.13989H56.1491ZM52.6491 13.1499C53.0491 12.1499 54.6491 7.8499 54.6491 7.8499C54.6491 7.8499 55.0491 6.7499 55.3491 6.0499L55.6491 7.74989C55.6491 7.74989 56.6491 12.2499 56.8491 13.2499H52.6491V13.1499Z" fill="#C2C2C2"/>
<path d="M13.913 13.7509L13.413 11.1509C12.1549 7.72677 9.65313 4.90224 6.40601 3.23987L10.906 19.2539H16.306L24.422 1.23987H19.022L13.913 13.7509Z" fill="#C2C2C2"/>
<path d="M13.913 13.7509L13.413 11.1509C12.1549 7.72677 9.65313 4.90224 6.40601 3.23987L10.906 19.2539H16.306L24.422 1.23987H20.022L13.913 13.7509Z" fill="#C2C2C2"/>
<path d="M0 1.13989L0.9 1.3399C7.306 2.8399 11.709 6.6399 13.411 11.1489L11.611 2.64189C11.311 1.44189 10.411 1.14189 9.311 1.14189L0 1.13989Z" fill="#C2C2C2"/>
<path d="M0 1.13989C6.406 2.63989 11.71 6.5399 13.412 11.0489L11.712 3.9429C11.5883 3.40016 11.2829 2.91593 10.8465 2.5704C10.41 2.22488 9.86865 2.03877 9.312 2.04289L0 1.13989Z" fill="#C2C2C2"/>
<path d="M0 1.13989C6.406 2.63989 11.71 6.5399 13.412 11.0489L12.212 7.1489C11.912 5.9489 11.512 4.7489 10.112 4.2489L0 1.13989Z" fill="#C2C2C2"/>
<path d="M18.9171 13.1499L15.5171 9.74988L13.9171 13.5499L13.5171 11.0499C12.2576 7.62584 9.75436 4.80197 6.5061 3.14087L11.0061 19.1549H16.4061L18.9171 13.1499Z" fill="#C2C2C2"/>
<path d="M28.2211 19.1508L23.9211 14.7509L23.1211 19.1508H28.2211Z" fill="#C2C2C2"/>
<path d="M39.7352 12.9498C40.1352 13.3498 40.3352 13.6498 40.2352 14.0498C40.2352 15.2498 38.6352 15.8499 37.2352 15.8499C35.5799 15.8861 33.9382 15.5441 32.4352 14.8499L31.7352 14.5498L31.0352 18.6498C32.8599 19.322 34.7906 19.6607 36.7352 19.6498C39.9352 19.6498 42.5402 18.7498 44.0412 17.1498L39.7352 12.9498Z" fill="#C2C2C2"/>
<path d="M45.54 19.1548H50.2401L51.2401 16.1548H57.646L58.246 19.1548H63.0461L61.346 11.8488L55.341 6.04382L55.6411 7.64381C55.6411 7.64381 56.641 12.1438 56.841 13.1438H52.6411C53.0411 12.1438 54.6411 7.84381 54.6411 7.84381C54.6411 7.84381 55.041 6.74382 55.341 6.04382" fill="#C2C2C2"/>
</svg>
