<svg width="21" height="20" viewBox="0 0 21 20" fill="none" xmlns="http://www.w3.org/2000/svg">
<path d="M6.32202 7H10.322H6.32202Z" fill="#4C8613" fill-opacity="0.15"/>
<path d="M6.32202 7H10.322" stroke="#4C8613" stroke-width="1.5" stroke-linecap="round"/>
<path d="M1.86504 6.84901C2.15075 5.54821 2.79379 4.35295 3.72182 3.39771C4.64985 2.44248 5.82604 1.76517 7.11804 1.44201L7.54804 1.34201C9.48848 0.887786 11.5076 0.887786 13.448 1.34201L13.878 1.44201C15.17 1.76517 16.3462 2.44248 17.2743 3.39771C18.2023 4.35295 18.8453 5.54821 19.131 6.84901C19.6175 8.92085 19.6175 11.0772 19.131 13.149C18.8453 14.4498 18.2023 15.6451 17.2743 16.6003C16.3462 17.5555 15.17 18.2328 13.878 18.556L13.448 18.656C11.5076 19.1102 9.48848 19.1102 7.54804 18.656L7.11804 18.556C5.82629 18.233 4.65028 17.556 3.72228 16.6011C2.79427 15.6463 2.15108 14.4514 1.86504 13.151C1.37832 11.0785 1.37832 8.92148 1.86504 6.84901Z" fill="#4C8613" fill-opacity="0.15" stroke="#4C8613" stroke-width="1.5" stroke-linecap="round"/>
<path d="M19.2999 7.80002C18.4801 7.44288 17.5724 7.33842 16.6929 7.50002L16.6339 7.51102C16.1512 7.59894 15.7027 7.82022 15.3391 8.14981C14.9756 8.47941 14.7116 8.90416 14.5769 9.37602C14.4597 9.78648 14.4597 10.2216 14.5769 10.632C14.7116 11.1039 14.9756 11.5286 15.3391 11.8582C15.7027 12.1878 16.1512 12.4091 16.6339 12.497L16.6929 12.508C17.5724 12.6696 18.4801 12.5652 19.2999 12.208" fill="#4C8613" fill-opacity="0.15"/>
<path d="M19.2999 7.80002C18.4801 7.44288 17.5724 7.33842 16.6929 7.50002L16.6339 7.51102C16.1512 7.59894 15.7027 7.82022 15.3391 8.14981C14.9756 8.47941 14.7116 8.90416 14.5769 9.37602C14.4597 9.78648 14.4597 10.2216 14.5769 10.632C14.7116 11.1039 14.9756 11.5286 15.3391 11.8582C15.7027 12.1878 16.1512 12.4091 16.6339 12.497L16.6929 12.508C17.5724 12.6696 18.4801 12.5652 19.2999 12.208" stroke="#4C8613" stroke-width="1.5" stroke-linecap="round"/>
</svg>
